<svg xmlns="http://www.w3.org/2000/svg" xmlns:xlink="http://www.w3.org/1999/xlink" width="500" zoomAndPan="magnify" viewBox="0 0 375 374.999991" height="500" preserveAspectRatio="xMidYMid meet" version="1.0"><defs><g/><clipPath id="6ad3007301"><path d="M 51.292969 44 L 147 44 L 147 184 L 51.292969 184 Z M 51.292969 44 " clip-rule="nonzero"/></clipPath><clipPath id="ad4e441038"><path d="M 228 44 L 323.542969 44 L 323.542969 184 L 228 184 Z M 228 44 " clip-rule="nonzero"/></clipPath><clipPath id="5cb1a2c23d"><path d="M 139 7.972656 L 234 7.972656 L 234 219.472656 L 139 219.472656 Z M 139 7.972656 " clip-rule="nonzero"/></clipPath></defs><path fill="#6db5e7" d="M 137.191406 180.414062 C 135.6875 180.414062 134.207031 179.910156 133.023438 178.96875 L 56.894531 119.023438 C 55.257812 117.734375 54.320312 115.804688 54.320312 113.722656 C 54.320312 111.644531 55.257812 109.710938 56.890625 108.414062 L 133.023438 48.480469 C 134.207031 47.539062 135.6875 47.03125 137.191406 47.03125 C 139.269531 47.03125 141.210938 47.964844 142.488281 49.605469 C 143.601562 51.019531 144.105469 52.792969 143.886719 54.574219 C 143.679688 56.367188 142.773438 57.964844 141.359375 59.078125 L 71.980469 113.722656 L 141.359375 168.359375 C 142.773438 169.484375 143.679688 171.082031 143.886719 172.863281 C 144.105469 174.65625 143.601562 176.414062 142.488281 177.839844 C 141.210938 179.472656 139.269531 180.414062 137.191406 180.414062 " fill-opacity="1" fill-rule="nonzero"/><g clip-path="url(#6ad3007301)"><path fill="#edf2f4" d="M 137.191406 44.160156 C 135.042969 44.160156 132.941406 44.882812 131.253906 46.214844 L 55.121094 106.160156 C 52.78125 108.011719 51.449219 110.757812 51.449219 113.722656 C 51.449219 116.6875 52.792969 119.449219 55.121094 121.289062 L 131.253906 181.230469 C 132.929688 182.554688 135.042969 183.289062 137.191406 183.289062 C 140.167969 183.289062 142.921875 181.945312 144.75 179.609375 C 146.347656 177.597656 147.046875 175.082031 146.746094 172.53125 C 146.4375 169.976562 145.164062 167.691406 143.140625 166.105469 L 76.621094 113.722656 L 143.140625 61.34375 C 145.164062 59.746094 146.4375 57.46875 146.746094 54.917969 C 147.046875 52.367188 146.347656 49.847656 144.75 47.824219 C 142.921875 45.492188 140.15625 44.160156 137.191406 44.160156 Z M 137.191406 49.90625 C 138.339844 49.90625 139.476562 50.410156 140.234375 51.378906 C 141.566406 53.066406 141.269531 55.503906 139.59375 56.824219 L 67.328125 113.722656 L 139.59375 170.621094 C 141.269531 171.945312 141.566406 174.378906 140.234375 176.058594 C 139.476562 177.035156 138.339844 177.542969 137.191406 177.542969 C 136.355469 177.542969 135.515625 177.277344 134.804688 176.714844 L 58.667969 116.769531 C 57.738281 116.035156 57.191406 114.90625 57.191406 113.722656 C 57.191406 112.527344 57.738281 111.414062 58.667969 110.679688 L 134.804688 50.734375 C 135.503906 50.171875 136.355469 49.90625 137.191406 49.90625 " fill-opacity="1" fill-rule="nonzero"/></g><path fill="#6db5e7" d="M 237.640625 180.414062 C 235.5625 180.414062 233.632812 179.472656 232.335938 177.839844 C 230.039062 174.921875 230.542969 170.667969 233.472656 168.359375 L 302.863281 113.722656 L 233.472656 59.078125 C 230.542969 56.78125 230.039062 52.527344 232.335938 49.605469 C 233.632812 47.964844 235.5625 47.03125 237.640625 47.03125 C 239.144531 47.03125 240.625 47.539062 241.808594 48.480469 L 317.945312 108.414062 C 319.574219 109.710938 320.503906 111.644531 320.503906 113.722656 C 320.503906 115.804688 319.574219 117.734375 317.933594 119.023438 L 241.808594 178.96875 C 240.625 179.910156 239.144531 180.414062 237.640625 180.414062 " fill-opacity="1" fill-rule="nonzero"/><g clip-path="url(#ad4e441038)"><path fill="#edf2f4" d="M 237.640625 44.160156 C 234.675781 44.160156 231.921875 45.492188 230.082031 47.824219 C 226.796875 51.996094 227.523438 58.054688 231.691406 61.34375 L 298.214844 113.722656 L 231.691406 166.105469 C 227.523438 169.378906 226.796875 175.449219 230.082031 179.609375 C 231.921875 181.945312 234.675781 183.289062 237.640625 183.289062 C 239.789062 183.289062 241.890625 182.554688 243.578125 181.230469 L 319.714844 121.289062 C 322.042969 119.449219 323.378906 116.6875 323.378906 113.722656 C 323.378906 110.757812 322.042969 108.011719 319.726562 106.160156 L 243.589844 46.214844 C 241.902344 44.882812 239.789062 44.160156 237.640625 44.160156 Z M 237.640625 49.90625 C 238.480469 49.90625 239.328125 50.171875 240.03125 50.734375 L 316.164062 110.679688 C 317.09375 111.414062 317.632812 112.527344 317.632812 113.722656 C 317.632812 114.90625 317.09375 116.035156 316.164062 116.769531 L 240.03125 176.714844 C 239.328125 177.277344 238.480469 177.542969 237.640625 177.542969 C 236.492188 177.542969 235.355469 177.035156 234.597656 176.058594 C 233.277344 174.378906 233.5625 171.945312 235.242188 170.621094 L 307.503906 113.722656 L 235.242188 56.824219 C 233.5625 55.503906 233.277344 53.066406 234.597656 51.378906 C 235.355469 50.410156 236.503906 49.90625 237.640625 49.90625 " fill-opacity="1" fill-rule="nonzero"/></g><path fill="#6db5e7" d="M 149.585938 216.589844 C 148.746094 216.589844 147.929688 216.425781 147.148438 216.128906 C 145.472656 215.472656 144.140625 214.210938 143.417969 212.566406 C 142.683594 210.910156 142.648438 209.082031 143.289062 207.40625 L 217.644531 15.167969 C 218.644531 12.59375 221.171875 10.859375 223.925781 10.859375 C 224.765625 10.859375 225.59375 11.019531 226.375 11.320312 C 229.832031 12.664062 231.566406 16.582031 230.222656 20.054688 L 155.878906 212.277344 C 154.878906 214.851562 152.339844 216.589844 149.585938 216.589844 " fill-opacity="1" fill-rule="nonzero"/><g clip-path="url(#5cb1a2c23d)"><path fill="#edf2f4" d="M 223.925781 7.984375 C 219.988281 7.984375 216.382812 10.46875 214.96875 14.136719 L 140.613281 206.359375 C 139.695312 208.761719 139.753906 211.371094 140.785156 213.726562 C 141.832031 216.070312 143.714844 217.886719 146.117188 218.808594 C 147.230469 219.242188 148.390625 219.460938 149.585938 219.460938 C 153.523438 219.460938 157.128906 216.992188 158.554688 213.3125 L 232.898438 21.089844 C 234.816406 16.136719 232.347656 10.546875 227.394531 8.640625 C 226.292969 8.203125 225.121094 7.984375 223.925781 7.984375 Z M 223.925781 13.734375 C 224.398438 13.734375 224.871094 13.824219 225.328125 13.996094 C 227.328125 14.765625 228.316406 17.007812 227.546875 19.007812 L 153.191406 211.230469 C 152.605469 212.773438 151.136719 213.714844 149.585938 213.714844 C 149.113281 213.714844 148.644531 213.632812 148.183594 213.449219 C 146.183594 212.679688 145.195312 210.425781 145.976562 208.4375 L 220.320312 16.214844 C 220.917969 14.675781 222.378906 13.734375 223.925781 13.734375 " fill-opacity="1" fill-rule="nonzero"/></g><g fill="#edf2f4" fill-opacity="1"><g transform="translate(53.640638, 274.129309)"><g><path d="M 14.84375 -41.59375 C 17.269531 -41.59375 19.710938 -41.128906 22.171875 -40.203125 C 24.640625 -39.285156 26.835938 -37.867188 28.765625 -35.953125 C 30.691406 -34.046875 32.148438 -31.773438 33.140625 -29.140625 C 34.140625 -26.515625 34.640625 -23.710938 34.640625 -20.734375 C 34.640625 -16.734375 33.742188 -13.140625 31.953125 -9.953125 C 30.171875 -6.773438 27.753906 -4.320312 24.703125 -2.59375 C 21.648438 -0.863281 18.34375 0 14.78125 0 L 2.984375 0 L 2.984375 -41.59375 Z M 11.09375 -7.0625 L 12.25 -7.0625 C 16.945312 -7.0625 20.453125 -8.207031 22.765625 -10.5 C 25.085938 -12.800781 26.25 -16.234375 26.25 -20.796875 C 26.25 -25.273438 25.109375 -28.679688 22.828125 -31.015625 C 20.554688 -33.359375 17.03125 -34.53125 12.25 -34.53125 L 11.09375 -34.53125 Z M 11.09375 -7.0625 "/></g></g></g><g fill="#edf2f4" fill-opacity="1"><g transform="translate(89.261351, 274.129309)"><g><path d="M 2.421875 -38.4375 C 2.421875 -39.65625 2.863281 -40.722656 3.75 -41.640625 C 4.632812 -42.554688 5.71875 -43.015625 7 -43.015625 C 8.289062 -43.015625 9.375 -42.554688 10.25 -41.640625 C 11.132812 -40.722656 11.578125 -39.65625 11.578125 -38.4375 C 11.578125 -37.15625 11.132812 -36.070312 10.25 -35.1875 C 9.375 -34.300781 8.289062 -33.859375 7 -33.859375 C 5.71875 -33.859375 4.632812 -34.300781 3.75 -35.1875 C 2.863281 -36.070312 2.421875 -37.15625 2.421875 -38.4375 Z M 10.859375 -27.078125 L 10.859375 0 L 3.140625 0 L 3.140625 -27.078125 Z M 10.859375 -27.078125 "/></g></g></g><g fill="#edf2f4" fill-opacity="1"><g transform="translate(103.211874, 274.129309)"><g><path d="M 20.515625 -24.484375 L 20.515625 -27.078125 L 28.234375 -27.078125 L 28.234375 -1.375 C 28.234375 3.726562 27.148438 7.640625 24.984375 10.359375 C 22.816406 13.085938 19.523438 14.453125 15.109375 14.453125 C 11.398438 14.453125 8.25 13.398438 5.65625 11.296875 C 3.0625 9.203125 1.65625 6.503906 1.4375 3.203125 L 9.59375 3.203125 C 9.78125 4.628906 10.347656 5.773438 11.296875 6.640625 C 12.253906 7.503906 13.472656 7.9375 14.953125 7.9375 C 17.003906 7.9375 18.441406 7.273438 19.265625 5.953125 C 20.097656 4.628906 20.515625 2.703125 20.515625 0.171875 L 20.515625 -2.703125 L 20.40625 -2.703125 C 19.59375 -1.597656 18.515625 -0.722656 17.171875 -0.078125 C 15.835938 0.554688 14.453125 0.875 13.015625 0.875 C 9.410156 0.875 6.476562 -0.472656 4.21875 -3.171875 C 1.957031 -5.867188 0.828125 -9.257812 0.828125 -13.34375 C 0.828125 -16.03125 1.367188 -18.515625 2.453125 -20.796875 C 3.535156 -23.078125 5.039062 -24.84375 6.96875 -26.09375 C 8.90625 -27.34375 11.050781 -27.96875 13.40625 -27.96875 C 14.6875 -27.96875 15.976562 -27.65625 17.28125 -27.03125 C 18.59375 -26.40625 19.632812 -25.554688 20.40625 -24.484375 Z M 15 -21.125 C 13.238281 -21.125 11.738281 -20.367188 10.5 -18.859375 C 9.269531 -17.359375 8.65625 -15.578125 8.65625 -13.515625 C 8.65625 -11.492188 9.269531 -9.726562 10.5 -8.21875 C 11.738281 -6.707031 13.257812 -5.953125 15.0625 -5.953125 C 16.820312 -5.953125 18.328125 -6.695312 19.578125 -8.1875 C 20.828125 -9.675781 21.453125 -11.453125 21.453125 -13.515625 C 21.453125 -15.609375 20.828125 -17.398438 19.578125 -18.890625 C 18.328125 -20.378906 16.800781 -21.125 15 -21.125 Z M 15 -21.125 "/></g></g></g><g fill="#edf2f4" fill-opacity="1"><g transform="translate(134.20079, 274.129309)"><g><path d="M 2.421875 -38.4375 C 2.421875 -39.65625 2.863281 -40.722656 3.75 -41.640625 C 4.632812 -42.554688 5.71875 -43.015625 7 -43.015625 C 8.289062 -43.015625 9.375 -42.554688 10.25 -41.640625 C 11.132812 -40.722656 11.578125 -39.65625 11.578125 -38.4375 C 11.578125 -37.15625 11.132812 -36.070312 10.25 -35.1875 C 9.375 -34.300781 8.289062 -33.859375 7 -33.859375 C 5.71875 -33.859375 4.632812 -34.300781 3.75 -35.1875 C 2.863281 -36.070312 2.421875 -37.15625 2.421875 -38.4375 Z M 10.859375 -27.078125 L 10.859375 0 L 3.140625 0 L 3.140625 -27.078125 Z M 10.859375 -27.078125 "/></g></g></g><g fill="#edf2f4" fill-opacity="1"><g transform="translate(148.151313, 274.129309)"><g><path d="M 11.421875 -36.234375 L 11.421875 -27.078125 L 16.15625 -27.078125 L 16.15625 -20.578125 L 11.421875 -20.578125 L 11.421875 0 L 3.703125 0 L 3.703125 -20.578125 L 1.046875 -20.578125 L 1.046875 -27.078125 L 3.703125 -27.078125 L 3.703125 -36.234375 Z M 11.421875 -36.234375 "/></g></g></g><g fill="#edf2f4" fill-opacity="1"><g transform="translate(163.259794, 274.129309)"><g><path d="M 20.734375 -27.078125 L 28.34375 -27.078125 L 28.34375 0 L 20.734375 0 L 20.734375 -2.484375 L 20.625 -2.484375 C 19.820312 -1.410156 18.75 -0.582031 17.40625 0 C 16.0625 0.582031 14.691406 0.875 13.296875 0.875 C 9.722656 0.875 6.75 -0.53125 4.375 -3.34375 C 2.007812 -6.15625 0.828125 -9.597656 0.828125 -13.671875 C 0.828125 -16.210938 1.34375 -18.566406 2.375 -20.734375 C 3.40625 -22.910156 4.863281 -24.660156 6.75 -25.984375 C 8.644531 -27.304688 10.789062 -27.96875 13.1875 -27.96875 C 14.582031 -27.96875 15.945312 -27.671875 17.28125 -27.078125 C 18.625 -26.492188 19.773438 -25.648438 20.734375 -24.546875 Z M 15 -21.125 C 13.269531 -21.125 11.78125 -20.378906 10.53125 -18.890625 C 9.28125 -17.398438 8.65625 -15.625 8.65625 -13.5625 C 8.65625 -11.507812 9.28125 -9.726562 10.53125 -8.21875 C 11.78125 -6.707031 13.289062 -5.953125 15.0625 -5.953125 C 16.863281 -5.953125 18.390625 -6.695312 19.640625 -8.1875 C 20.890625 -9.675781 21.515625 -11.46875 21.515625 -13.5625 C 21.515625 -15.664062 20.878906 -17.453125 19.609375 -18.921875 C 18.335938 -20.390625 16.800781 -21.125 15 -21.125 Z M 15 -21.125 "/></g></g></g><g fill="#edf2f4" fill-opacity="1"><g transform="translate(194.414138, 274.129309)"><g><path d="M 10.484375 -46.765625 L 10.484375 0 L 2.75 0 L 2.75 -46.765625 Z M 10.484375 -46.765625 "/></g></g></g><g fill="#edf2f4" fill-opacity="1"><g transform="translate(207.592706, 274.129309)"><g/></g></g><g fill="#edf2f4" fill-opacity="1"><g transform="translate(223.52829, 274.129309)"><g><path d="M 11.09375 -41.59375 L 11.09375 -25.203125 L 26.09375 -25.203125 L 26.09375 -41.59375 L 34.203125 -41.59375 L 34.203125 0 L 26.09375 0 L 26.09375 -18.59375 L 11.09375 -18.59375 L 11.09375 0 L 2.984375 0 L 2.984375 -41.59375 Z M 11.09375 -41.59375 "/></g></g></g><g fill="#edf2f4" fill-opacity="1"><g transform="translate(260.692948, 274.129309)"><g><path d="M 10.3125 -27.078125 L 10.3125 -12.1875 C 10.3125 -7.8125 11.785156 -5.625 14.734375 -5.625 C 17.671875 -5.625 19.140625 -7.8125 19.140625 -12.1875 L 19.140625 -27.078125 L 26.859375 -27.078125 L 26.859375 -10.921875 C 26.859375 -7.203125 25.863281 -4.304688 23.875 -2.234375 C 21.894531 -0.160156 18.847656 0.875 14.734375 0.875 C 10.648438 0.875 7.601562 -0.171875 5.59375 -2.265625 C 3.59375 -4.359375 2.59375 -7.242188 2.59375 -10.921875 L 2.59375 -27.078125 Z M 10.3125 -27.078125 "/></g></g></g><g fill="#edf2f4" fill-opacity="1"><g transform="translate(290.193086, 274.129309)"><g><path d="M 10.484375 -46.765625 L 10.484375 -24.59375 C 11.429688 -25.664062 12.566406 -26.492188 13.890625 -27.078125 C 15.222656 -27.671875 16.585938 -27.96875 17.984375 -27.96875 C 20.265625 -27.96875 22.359375 -27.320312 24.265625 -26.03125 C 26.179688 -24.75 27.671875 -22.992188 28.734375 -20.765625 C 29.796875 -18.535156 30.328125 -16.171875 30.328125 -13.671875 C 30.328125 -10.992188 29.796875 -8.523438 28.734375 -6.265625 C 27.671875 -4.003906 26.171875 -2.25 24.234375 -1 C 22.304688 0.25 20.164062 0.875 17.8125 0.875 C 16.414062 0.875 15.054688 0.582031 13.734375 0 C 12.410156 -0.582031 11.363281 -1.425781 10.59375 -2.53125 L 10.484375 -2.53125 L 10.484375 0 L 2.75 0 L 2.75 -46.765625 Z M 16.046875 -21.125 C 14.316406 -21.125 12.828125 -20.378906 11.578125 -18.890625 C 10.328125 -17.398438 9.703125 -15.625 9.703125 -13.5625 C 9.703125 -11.46875 10.328125 -9.675781 11.578125 -8.1875 C 12.828125 -6.695312 14.335938 -5.953125 16.109375 -5.953125 C 17.984375 -5.953125 19.515625 -6.722656 20.703125 -8.265625 C 21.898438 -9.816406 22.5 -11.582031 22.5 -13.5625 C 22.5 -15.550781 21.890625 -17.304688 20.671875 -18.828125 C 19.460938 -20.359375 17.921875 -21.125 16.046875 -21.125 Z M 16.046875 -21.125 "/></g></g></g><g fill="#edf2f4" fill-opacity="1"><g transform="translate(52.050569, 344.947478)"><g><path d="M 13.375 -50.203125 L 13.375 -30.421875 L 31.484375 -30.421875 L 31.484375 -50.203125 L 41.28125 -50.203125 L 41.28125 0 L 31.484375 0 L 31.484375 -22.4375 L 13.375 -22.4375 L 13.375 0 L 3.59375 0 L 3.59375 -50.203125 Z M 13.375 -50.203125 "/></g></g></g><g fill="#edf2f4" fill-opacity="1"><g transform="translate(96.907983, 344.947478)"><g><path d="M 25.03125 -32.6875 L 34.21875 -32.6875 L 34.21875 0 L 25.03125 0 L 25.03125 -3 L 24.90625 -3 C 23.925781 -1.707031 22.625 -0.707031 21 0 C 19.382812 0.707031 17.734375 1.0625 16.046875 1.0625 C 11.742188 1.0625 8.160156 -0.632812 5.296875 -4.03125 C 2.429688 -7.425781 1 -11.585938 1 -16.515625 C 1 -19.578125 1.617188 -22.414062 2.859375 -25.03125 C 4.109375 -27.65625 5.875 -29.765625 8.15625 -31.359375 C 10.4375 -32.953125 13.019531 -33.75 15.90625 -33.75 C 17.59375 -33.75 19.242188 -33.394531 20.859375 -32.6875 C 22.484375 -31.976562 23.875 -30.957031 25.03125 -29.625 Z M 18.109375 -25.5 C 16.023438 -25.5 14.226562 -24.597656 12.71875 -22.796875 C 11.207031 -21.003906 10.453125 -18.863281 10.453125 -16.375 C 10.453125 -13.894531 11.207031 -11.742188 12.71875 -9.921875 C 14.226562 -8.097656 16.046875 -7.1875 18.171875 -7.1875 C 20.347656 -7.1875 22.191406 -8.082031 23.703125 -9.875 C 25.210938 -11.675781 25.96875 -13.84375 25.96875 -16.375 C 25.96875 -18.90625 25.203125 -21.054688 23.671875 -22.828125 C 22.140625 -24.609375 20.285156 -25.5 18.109375 -25.5 Z M 18.109375 -25.5 "/></g></g></g><g fill="#edf2f4" fill-opacity="1"><g transform="translate(134.511001, 344.947478)"><g><path d="M 30.15625 -28.625 C 31.175781 -30.226562 32.539062 -31.484375 34.25 -32.390625 C 35.957031 -33.296875 37.769531 -33.75 39.6875 -33.75 C 43.1875 -33.75 45.789062 -32.640625 47.5 -30.421875 C 49.207031 -28.203125 50.0625 -24.960938 50.0625 -20.703125 L 50.0625 0 L 40.75 0 L 40.75 -18.3125 C 40.75 -20.882812 40.425781 -22.859375 39.78125 -24.234375 C 39.132812 -25.609375 37.992188 -26.296875 36.359375 -26.296875 C 34.671875 -26.296875 33.414062 -25.53125 32.59375 -24 C 31.769531 -22.46875 31.359375 -19.992188 31.359375 -16.578125 L 31.359375 0 L 22.03125 0 L 22.03125 -18.96875 C 22.03125 -21.414062 21.65625 -23.25 20.90625 -24.46875 C 20.15625 -25.6875 19.046875 -26.296875 17.578125 -26.296875 C 16.109375 -26.296875 14.921875 -25.648438 14.015625 -24.359375 C 13.109375 -23.078125 12.65625 -20.945312 12.65625 -17.96875 L 12.65625 0 L 3.328125 0 L 3.328125 -32.6875 L 12.65625 -32.6875 L 12.65625 -29.765625 L 12.78125 -29.765625 C 13.71875 -31.046875 14.90625 -32.03125 16.34375 -32.71875 C 17.789062 -33.40625 19.265625 -33.75 20.765625 -33.75 C 24.941406 -33.75 28.070312 -32.039062 30.15625 -28.625 Z M 30.15625 -28.625 "/></g></g></g><g fill="#edf2f4" fill-opacity="1"><g transform="translate(187.887329, 344.947478)"><g><path d="M 12.65625 -56.453125 L 12.65625 -29.6875 C 13.800781 -30.976562 15.171875 -31.976562 16.765625 -32.6875 C 18.367188 -33.394531 20.015625 -33.75 21.703125 -33.75 C 24.453125 -33.75 26.976562 -32.972656 29.28125 -31.421875 C 31.59375 -29.867188 33.394531 -27.75 34.6875 -25.0625 C 35.976562 -22.375 36.625 -19.523438 36.625 -16.515625 C 36.625 -13.273438 35.976562 -10.289062 34.6875 -7.5625 C 33.394531 -4.832031 31.582031 -2.710938 29.25 -1.203125 C 26.925781 0.304688 24.34375 1.0625 21.5 1.0625 C 19.8125 1.0625 18.171875 0.707031 16.578125 0 C 14.984375 -0.707031 13.71875 -1.726562 12.78125 -3.0625 L 12.65625 -3.0625 L 12.65625 0 L 3.328125 0 L 3.328125 -56.453125 Z M 19.375 -25.5 C 17.289062 -25.5 15.492188 -24.597656 13.984375 -22.796875 C 12.472656 -21.003906 11.71875 -18.863281 11.71875 -16.375 C 11.71875 -13.84375 12.472656 -11.675781 13.984375 -9.875 C 15.492188 -8.082031 17.3125 -7.1875 19.4375 -7.1875 C 21.707031 -7.1875 23.5625 -8.117188 25 -9.984375 C 26.4375 -11.847656 27.15625 -13.976562 27.15625 -16.375 C 27.15625 -18.769531 26.421875 -20.890625 24.953125 -22.734375 C 23.492188 -24.578125 21.632812 -25.5 19.375 -25.5 Z M 19.375 -25.5 "/></g></g></g><g fill="#edf2f4" fill-opacity="1"><g transform="translate(225.490347, 344.947478)"><g><path d="M 12.453125 -32.6875 L 12.453125 -14.71875 C 12.453125 -9.4375 14.226562 -6.796875 17.78125 -6.796875 C 21.332031 -6.796875 23.109375 -9.4375 23.109375 -14.71875 L 23.109375 -32.6875 L 32.421875 -32.6875 L 32.421875 -13.1875 C 32.421875 -8.695312 31.222656 -5.195312 28.828125 -2.6875 C 26.429688 -0.1875 22.75 1.0625 17.78125 1.0625 C 12.851562 1.0625 9.175781 -0.203125 6.75 -2.734375 C 4.332031 -5.265625 3.125 -8.75 3.125 -13.1875 L 3.125 -32.6875 Z M 12.453125 -32.6875 "/></g></g></g><g fill="#edf2f4" fill-opacity="1"><g transform="translate(261.096753, 344.947478)"><g><path d="M 23.640625 -24.296875 C 22.484375 -25.097656 21.195312 -25.5 19.78125 -25.5 C 17.375 -25.5 15.582031 -24.6875 14.40625 -23.0625 C 13.238281 -21.445312 12.65625 -18.773438 12.65625 -15.046875 L 12.65625 0 L 3.328125 0 L 3.328125 -32.6875 L 12.65625 -32.6875 L 12.65625 -29.296875 L 12.78125 -29.296875 C 13.71875 -30.710938 14.875 -31.804688 16.25 -32.578125 C 17.625 -33.359375 19.175781 -33.75 20.90625 -33.75 C 22.195312 -33.707031 23.484375 -33.441406 24.765625 -32.953125 Z M 23.640625 -24.296875 "/></g></g></g><g fill="#edf2f4" fill-opacity="1"><g transform="translate(285.522083, 344.947478)"><g><path d="M 24.765625 -29.5625 L 24.765625 -32.6875 L 34.09375 -32.6875 L 34.09375 -1.671875 C 34.09375 4.503906 32.78125 9.234375 30.15625 12.515625 C 27.539062 15.796875 23.570312 17.4375 18.25 17.4375 C 13.757812 17.4375 9.945312 16.171875 6.8125 13.640625 C 3.6875 11.117188 1.992188 7.859375 1.734375 3.859375 L 11.578125 3.859375 C 11.804688 5.585938 12.492188 6.972656 13.640625 8.015625 C 14.796875 9.066406 16.265625 9.59375 18.046875 9.59375 C 20.523438 9.59375 22.265625 8.789062 23.265625 7.1875 C 24.265625 5.59375 24.765625 3.265625 24.765625 0.203125 L 24.765625 -3.265625 L 24.640625 -3.265625 C 23.660156 -1.929688 22.359375 -0.875 20.734375 -0.09375 C 19.117188 0.675781 17.445312 1.0625 15.71875 1.0625 C 11.363281 1.0625 7.820312 -0.566406 5.09375 -3.828125 C 2.363281 -7.085938 1 -11.179688 1 -16.109375 C 1 -19.347656 1.648438 -22.34375 2.953125 -25.09375 C 4.265625 -27.851562 6.085938 -29.984375 8.421875 -31.484375 C 10.753906 -32.992188 13.335938 -33.75 16.171875 -33.75 C 17.734375 -33.75 19.300781 -33.367188 20.875 -32.609375 C 22.445312 -31.859375 23.703125 -30.84375 24.640625 -29.5625 Z M 18.109375 -25.5 C 15.972656 -25.5 14.160156 -24.585938 12.671875 -22.765625 C 11.191406 -20.953125 10.453125 -18.800781 10.453125 -16.3125 C 10.453125 -13.875 11.191406 -11.742188 12.671875 -9.921875 C 14.160156 -8.097656 15.992188 -7.1875 18.171875 -7.1875 C 20.304688 -7.1875 22.128906 -8.082031 23.640625 -9.875 C 25.148438 -11.675781 25.90625 -13.820312 25.90625 -16.3125 C 25.90625 -18.84375 25.148438 -21.003906 23.640625 -22.796875 C 22.128906 -24.597656 20.285156 -25.5 18.109375 -25.5 Z M 18.109375 -25.5 "/></g></g></g></svg>