<svg xmlns="http://www.w3.org/2000/svg" xmlns:xlink="http://www.w3.org/1999/xlink" width="500" zoomAndPan="magnify" viewBox="0 0 375 374.999991" height="500" preserveAspectRatio="xMidYMid meet" version="1.0"><defs><g/><clipPath id="52e8f5084e"><path d="M 76.132812 96 L 155 96 L 155 211 L 76.132812 211 Z M 76.132812 96 " clip-rule="nonzero"/></clipPath><clipPath id="a61a5d4dc9"><path d="M 220 96 L 298.882812 96 L 298.882812 211 L 220 211 Z M 220 96 " clip-rule="nonzero"/></clipPath><clipPath id="829be6f339"><path d="M 148 67.164062 L 226 67.164062 L 226 240.414062 L 148 240.414062 Z M 148 67.164062 " clip-rule="nonzero"/></clipPath></defs><path fill="#6db5e7" d="M 146.410156 208.417969 C 145.179688 208.417969 143.96875 208.003906 143 207.234375 L 80.710938 158.128906 C 79.367188 157.074219 78.601562 155.492188 78.601562 153.789062 C 78.601562 152.085938 79.367188 150.503906 80.707031 149.4375 L 143 100.34375 C 143.96875 99.574219 145.179688 99.160156 146.410156 99.160156 C 148.113281 99.160156 149.699219 99.921875 150.742188 101.265625 C 151.65625 102.425781 152.066406 103.875 151.890625 105.335938 C 151.71875 106.804688 150.976562 108.113281 149.820312 109.027344 L 93.050781 153.789062 L 149.820312 198.542969 C 150.976562 199.464844 151.71875 200.773438 151.890625 202.234375 C 152.066406 203.703125 151.65625 205.140625 150.742188 206.308594 C 149.699219 207.648438 148.113281 208.417969 146.410156 208.417969 " fill-opacity="1" fill-rule="nonzero"/><g clip-path="url(#52e8f5084e)"><path fill="#edf2f4" d="M 146.410156 96.804688 C 144.652344 96.804688 142.933594 97.398438 141.550781 98.488281 L 79.253906 147.59375 C 77.34375 149.109375 76.253906 151.359375 76.253906 153.789062 C 76.253906 156.21875 77.351562 158.476562 79.253906 159.984375 L 141.550781 209.085938 C 142.925781 210.171875 144.652344 210.773438 146.410156 210.773438 C 148.84375 210.773438 151.101562 209.671875 152.59375 207.757812 C 153.902344 206.113281 154.472656 204.050781 154.230469 201.960938 C 153.976562 199.871094 152.933594 197.996094 151.277344 196.695312 L 96.847656 153.789062 L 151.277344 110.882812 C 152.933594 109.570312 153.976562 107.707031 154.230469 105.617188 C 154.472656 103.527344 153.902344 101.464844 152.59375 99.808594 C 151.101562 97.898438 148.835938 96.804688 146.410156 96.804688 Z M 146.410156 101.511719 C 147.351562 101.511719 148.28125 101.925781 148.902344 102.71875 C 149.992188 104.101562 149.746094 106.097656 148.375 107.179688 L 89.246094 153.789062 L 148.375 200.398438 C 149.746094 201.480469 149.992188 203.476562 148.902344 204.851562 C 148.28125 205.652344 147.351562 206.066406 146.410156 206.066406 C 145.726562 206.066406 145.039062 205.847656 144.457031 205.386719 L 82.160156 156.285156 C 81.398438 155.679688 80.953125 154.757812 80.953125 153.789062 C 80.953125 152.808594 81.398438 151.894531 82.160156 151.292969 L 144.457031 102.191406 C 145.03125 101.730469 145.726562 101.511719 146.410156 101.511719 " fill-opacity="1" fill-rule="nonzero"/></g><path fill="#6db5e7" d="M 228.601562 208.417969 C 226.902344 208.417969 225.324219 207.648438 224.261719 206.308594 C 222.382812 203.917969 222.796875 200.433594 225.191406 198.542969 L 281.972656 153.789062 L 225.191406 109.027344 C 222.796875 107.144531 222.382812 103.660156 224.261719 101.265625 C 225.324219 99.921875 226.902344 99.160156 228.601562 99.160156 C 229.832031 99.160156 231.046875 99.574219 232.015625 100.34375 L 294.3125 149.4375 C 295.644531 150.503906 296.40625 152.085938 296.40625 153.789062 C 296.40625 155.492188 295.644531 157.074219 294.300781 158.128906 L 232.015625 207.234375 C 231.046875 208.003906 229.832031 208.417969 228.601562 208.417969 " fill-opacity="1" fill-rule="nonzero"/><g clip-path="url(#a61a5d4dc9)"><path fill="#edf2f4" d="M 228.601562 96.804688 C 226.179688 96.804688 223.921875 97.898438 222.417969 99.808594 C 219.730469 103.226562 220.324219 108.1875 223.734375 110.882812 L 278.164062 153.789062 L 223.734375 196.695312 C 220.324219 199.378906 219.730469 204.351562 222.417969 207.757812 C 223.921875 209.671875 226.179688 210.773438 228.601562 210.773438 C 230.359375 210.773438 232.078125 210.171875 233.460938 209.085938 L 295.757812 159.984375 C 297.664062 158.476562 298.757812 156.21875 298.757812 153.789062 C 298.757812 151.359375 297.664062 149.109375 295.769531 147.59375 L 233.46875 98.488281 C 232.089844 97.398438 230.359375 96.804688 228.601562 96.804688 Z M 228.601562 101.511719 C 229.289062 101.511719 229.984375 101.730469 230.558594 102.191406 L 292.855469 151.292969 C 293.617188 151.894531 294.058594 152.808594 294.058594 153.789062 C 294.058594 154.757812 293.617188 155.679688 292.855469 156.285156 L 230.558594 205.386719 C 229.984375 205.847656 229.289062 206.066406 228.601562 206.066406 C 227.664062 206.066406 226.734375 205.652344 226.113281 204.851562 C 225.03125 203.476562 225.265625 201.480469 226.636719 200.398438 L 285.769531 153.789062 L 226.636719 107.179688 C 225.265625 106.097656 225.03125 104.101562 226.113281 102.71875 C 226.734375 101.925781 227.671875 101.511719 228.601562 101.511719 " fill-opacity="1" fill-rule="nonzero"/></g><path fill="#6db5e7" d="M 156.550781 238.050781 C 155.863281 238.050781 155.199219 237.917969 154.558594 237.671875 C 153.1875 237.136719 152.097656 236.101562 151.503906 234.753906 C 150.902344 233.398438 150.875 231.902344 151.402344 230.527344 L 212.242188 73.058594 C 213.058594 70.949219 215.125 69.527344 217.382812 69.527344 C 218.066406 69.527344 218.746094 69.660156 219.382812 69.902344 C 222.210938 71.003906 223.632812 74.214844 222.53125 77.058594 L 161.699219 234.519531 C 160.882812 236.628906 158.804688 238.050781 156.550781 238.050781 " fill-opacity="1" fill-rule="nonzero"/><g clip-path="url(#829be6f339)"><path fill="#edf2f4" d="M 217.382812 67.171875 C 214.160156 67.171875 211.207031 69.207031 210.050781 72.210938 L 149.210938 229.671875 C 148.460938 231.636719 148.507812 233.777344 149.351562 235.707031 C 150.207031 237.625 151.75 239.113281 153.710938 239.867188 C 154.625 240.226562 155.574219 240.402344 156.550781 240.402344 C 159.773438 240.402344 162.726562 238.378906 163.890625 235.367188 L 224.722656 77.90625 C 226.289062 73.847656 224.269531 69.273438 220.21875 67.710938 C 219.316406 67.351562 218.359375 67.171875 217.382812 67.171875 Z M 217.382812 71.882812 C 217.765625 71.882812 218.152344 71.957031 218.527344 72.097656 C 220.164062 72.726562 220.972656 74.5625 220.34375 76.203125 L 159.5 233.664062 C 159.023438 234.925781 157.820312 235.695312 156.550781 235.695312 C 156.164062 235.695312 155.78125 235.628906 155.40625 235.480469 C 153.769531 234.847656 152.960938 233.003906 153.601562 231.375 L 214.429688 73.914062 C 214.917969 72.652344 216.113281 71.882812 217.382812 71.882812 " fill-opacity="1" fill-rule="nonzero"/></g><g fill="#edf2f4" fill-opacity="1"><g transform="translate(2.132673, 291.271537)"><g><path d="M 10.828125 -30.34375 C 12.597656 -30.34375 14.378906 -30.007812 16.171875 -29.34375 C 17.972656 -28.675781 19.578125 -27.644531 20.984375 -26.25 C 22.398438 -24.851562 23.46875 -23.191406 24.1875 -21.265625 C 24.914062 -19.347656 25.28125 -17.304688 25.28125 -15.140625 C 25.28125 -12.210938 24.628906 -9.585938 23.328125 -7.265625 C 22.023438 -4.941406 20.257812 -3.148438 18.03125 -1.890625 C 15.800781 -0.628906 13.382812 0 10.78125 0 L 2.171875 0 L 2.171875 -30.34375 Z M 8.09375 -5.15625 L 8.9375 -5.15625 C 12.375 -5.15625 14.9375 -5.992188 16.625 -7.671875 C 18.3125 -9.347656 19.15625 -11.847656 19.15625 -15.171875 C 19.15625 -18.441406 18.320312 -20.929688 16.65625 -22.640625 C 15 -24.347656 12.425781 -25.203125 8.9375 -25.203125 L 8.09375 -25.203125 Z M 8.09375 -5.15625 "/></g></g></g><g fill="#edf2f4" fill-opacity="1"><g transform="translate(28.125948, 291.271537)"><g><path d="M 1.765625 -28.046875 C 1.765625 -28.929688 2.085938 -29.707031 2.734375 -30.375 C 3.378906 -31.050781 4.171875 -31.390625 5.109375 -31.390625 C 6.046875 -31.390625 6.835938 -31.050781 7.484375 -30.375 C 8.128906 -29.707031 8.453125 -28.929688 8.453125 -28.046875 C 8.453125 -27.109375 8.128906 -26.316406 7.484375 -25.671875 C 6.835938 -25.035156 6.046875 -24.71875 5.109375 -24.71875 C 4.171875 -24.71875 3.378906 -25.035156 2.734375 -25.671875 C 2.085938 -26.316406 1.765625 -27.109375 1.765625 -28.046875 Z M 7.921875 -19.765625 L 7.921875 0 L 2.296875 0 L 2.296875 -19.765625 Z M 7.921875 -19.765625 "/></g></g></g><g fill="#edf2f4" fill-opacity="1"><g transform="translate(38.305974, 291.271537)"><g><path d="M 14.96875 -17.875 L 14.96875 -19.765625 L 20.609375 -19.765625 L 20.609375 -1 C 20.609375 2.726562 19.816406 5.582031 18.234375 7.5625 C 16.648438 9.550781 14.25 10.546875 11.03125 10.546875 C 8.320312 10.546875 6.019531 9.78125 4.125 8.25 C 2.226562 6.71875 1.203125 4.742188 1.046875 2.328125 L 7 2.328125 C 7.132812 3.378906 7.550781 4.21875 8.25 4.84375 C 8.945312 5.476562 9.832031 5.796875 10.90625 5.796875 C 12.40625 5.796875 13.457031 5.3125 14.0625 4.34375 C 14.664062 3.375 14.96875 1.96875 14.96875 0.125 L 14.96875 -1.96875 L 14.890625 -1.96875 C 14.296875 -1.164062 13.507812 -0.53125 12.53125 -0.0625 C 11.550781 0.40625 10.539062 0.640625 9.5 0.640625 C 6.863281 0.640625 4.722656 -0.34375 3.078125 -2.3125 C 1.429688 -4.28125 0.609375 -6.753906 0.609375 -9.734375 C 0.609375 -11.691406 1.003906 -13.503906 1.796875 -15.171875 C 2.585938 -16.835938 3.6875 -18.125 5.09375 -19.03125 C 6.5 -19.945312 8.0625 -20.40625 9.78125 -20.40625 C 10.71875 -20.40625 11.660156 -20.175781 12.609375 -19.71875 C 13.566406 -19.257812 14.328125 -18.644531 14.890625 -17.875 Z M 10.953125 -15.421875 C 9.660156 -15.421875 8.5625 -14.867188 7.65625 -13.765625 C 6.757812 -12.660156 6.3125 -11.359375 6.3125 -9.859375 C 6.3125 -8.378906 6.757812 -7.085938 7.65625 -5.984375 C 8.5625 -4.890625 9.671875 -4.34375 10.984375 -4.34375 C 12.273438 -4.34375 13.375 -4.882812 14.28125 -5.96875 C 15.195312 -7.0625 15.65625 -8.359375 15.65625 -9.859375 C 15.65625 -11.390625 15.195312 -12.695312 14.28125 -13.78125 C 13.375 -14.875 12.265625 -15.421875 10.953125 -15.421875 Z M 10.953125 -15.421875 "/></g></g></g><g fill="#edf2f4" fill-opacity="1"><g transform="translate(60.919317, 291.271537)"><g><path d="M 1.765625 -28.046875 C 1.765625 -28.929688 2.085938 -29.707031 2.734375 -30.375 C 3.378906 -31.050781 4.171875 -31.390625 5.109375 -31.390625 C 6.046875 -31.390625 6.835938 -31.050781 7.484375 -30.375 C 8.128906 -29.707031 8.453125 -28.929688 8.453125 -28.046875 C 8.453125 -27.109375 8.128906 -26.316406 7.484375 -25.671875 C 6.835938 -25.035156 6.046875 -24.71875 5.109375 -24.71875 C 4.171875 -24.71875 3.378906 -25.035156 2.734375 -25.671875 C 2.085938 -26.316406 1.765625 -27.109375 1.765625 -28.046875 Z M 7.921875 -19.765625 L 7.921875 0 L 2.296875 0 L 2.296875 -19.765625 Z M 7.921875 -19.765625 "/></g></g></g><g fill="#edf2f4" fill-opacity="1"><g transform="translate(71.099343, 291.271537)"><g><path d="M 8.328125 -26.4375 L 8.328125 -19.765625 L 11.796875 -19.765625 L 11.796875 -15.015625 L 8.328125 -15.015625 L 8.328125 0 L 2.703125 0 L 2.703125 -15.015625 L 0.765625 -15.015625 L 0.765625 -19.765625 L 2.703125 -19.765625 L 2.703125 -26.4375 Z M 8.328125 -26.4375 "/></g></g></g><g fill="#edf2f4" fill-opacity="1"><g transform="translate(82.124358, 291.271537)"><g><path d="M 15.140625 -19.765625 L 20.6875 -19.765625 L 20.6875 0 L 15.140625 0 L 15.140625 -1.8125 L 15.046875 -1.8125 C 14.460938 -1.03125 13.679688 -0.425781 12.703125 0 C 11.722656 0.425781 10.722656 0.640625 9.703125 0.640625 C 7.097656 0.640625 4.929688 -0.382812 3.203125 -2.4375 C 1.472656 -4.488281 0.609375 -7.003906 0.609375 -9.984375 C 0.609375 -11.835938 0.984375 -13.554688 1.734375 -15.140625 C 2.484375 -16.722656 3.546875 -17.992188 4.921875 -18.953125 C 6.304688 -19.921875 7.875 -20.40625 9.625 -20.40625 C 10.644531 -20.40625 11.644531 -20.191406 12.625 -19.765625 C 13.601562 -19.335938 14.441406 -18.71875 15.140625 -17.90625 Z M 10.953125 -15.421875 C 9.691406 -15.421875 8.601562 -14.875 7.6875 -13.78125 C 6.769531 -12.695312 6.3125 -11.40625 6.3125 -9.90625 C 6.3125 -8.394531 6.769531 -7.085938 7.6875 -5.984375 C 8.601562 -4.890625 9.703125 -4.34375 10.984375 -4.34375 C 12.296875 -4.34375 13.410156 -4.882812 14.328125 -5.96875 C 15.242188 -7.0625 15.703125 -8.375 15.703125 -9.90625 C 15.703125 -11.4375 15.238281 -12.738281 14.3125 -13.8125 C 13.382812 -14.882812 12.265625 -15.421875 10.953125 -15.421875 Z M 10.953125 -15.421875 "/></g></g></g><g fill="#edf2f4" fill-opacity="1"><g transform="translate(104.858418, 291.271537)"><g><path d="M 7.640625 -34.125 L 7.640625 0 L 2.015625 0 L 2.015625 -34.125 Z M 7.640625 -34.125 "/></g></g></g><g fill="#edf2f4" fill-opacity="1"><g transform="translate(114.475131, 291.271537)"><g/></g></g><g fill="#edf2f4" fill-opacity="1"><g transform="translate(126.103702, 291.271537)"><g><path d="M 8.09375 -30.34375 L 8.09375 -18.390625 L 19.03125 -18.390625 L 19.03125 -30.34375 L 24.953125 -30.34375 L 24.953125 0 L 19.03125 0 L 19.03125 -13.5625 L 8.09375 -13.5625 L 8.09375 0 L 2.171875 0 L 2.171875 -30.34375 Z M 8.09375 -30.34375 "/></g></g></g><g fill="#edf2f4" fill-opacity="1"><g transform="translate(153.22363, 291.271537)"><g><path d="M 7.53125 -19.765625 L 7.53125 -8.890625 C 7.53125 -5.703125 8.601562 -4.109375 10.75 -4.109375 C 12.894531 -4.109375 13.96875 -5.703125 13.96875 -8.890625 L 13.96875 -19.765625 L 19.609375 -19.765625 L 19.609375 -7.96875 C 19.609375 -5.257812 18.878906 -3.144531 17.421875 -1.625 C 15.972656 -0.113281 13.75 0.640625 10.75 0.640625 C 7.769531 0.640625 5.546875 -0.117188 4.078125 -1.640625 C 2.617188 -3.171875 1.890625 -5.28125 1.890625 -7.96875 L 1.890625 -19.765625 Z M 7.53125 -19.765625 "/></g></g></g><g fill="#edf2f4" fill-opacity="1"><g transform="translate(174.750578, 291.271537)"><g><path d="M 7.640625 -34.125 L 7.640625 -17.953125 C 8.335938 -18.734375 9.171875 -19.335938 10.140625 -19.765625 C 11.109375 -20.191406 12.101562 -20.40625 13.125 -20.40625 C 14.78125 -20.40625 16.304688 -19.9375 17.703125 -19 C 19.097656 -18.0625 20.1875 -16.78125 20.96875 -15.15625 C 21.75 -13.53125 22.140625 -11.804688 22.140625 -9.984375 C 22.140625 -8.023438 21.75 -6.21875 20.96875 -4.5625 C 20.1875 -2.914062 19.09375 -1.632812 17.6875 -0.71875 C 16.28125 0.1875 14.71875 0.640625 13 0.640625 C 11.976562 0.640625 10.984375 0.425781 10.015625 0 C 9.054688 -0.425781 8.296875 -1.039062 7.734375 -1.84375 L 7.640625 -1.84375 L 7.640625 0 L 2.015625 0 L 2.015625 -34.125 Z M 11.71875 -15.421875 C 10.457031 -15.421875 9.367188 -14.875 8.453125 -13.78125 C 7.535156 -12.695312 7.078125 -11.40625 7.078125 -9.90625 C 7.078125 -8.375 7.535156 -7.0625 8.453125 -5.96875 C 9.367188 -4.882812 10.46875 -4.34375 11.75 -4.34375 C 13.125 -4.34375 14.242188 -4.90625 15.109375 -6.03125 C 15.984375 -7.164062 16.421875 -8.457031 16.421875 -9.90625 C 16.421875 -11.351562 15.976562 -12.632812 15.09375 -13.75 C 14.207031 -14.863281 13.082031 -15.421875 11.71875 -15.421875 Z M 11.71875 -15.421875 "/></g></g></g><g fill="#edf2f4" fill-opacity="1"><g transform="translate(197.484638, 291.271537)"><g/></g></g><g fill="#edf2f4" fill-opacity="1"><g transform="translate(209.11321, 291.271537)"><g><path d="M 8.09375 -30.34375 L 8.09375 -18.390625 L 19.03125 -18.390625 L 19.03125 -30.34375 L 24.953125 -30.34375 L 24.953125 0 L 19.03125 0 L 19.03125 -13.5625 L 8.09375 -13.5625 L 8.09375 0 L 2.171875 0 L 2.171875 -30.34375 Z M 8.09375 -30.34375 "/></g></g></g><g fill="#edf2f4" fill-opacity="1"><g transform="translate(236.233138, 291.271537)"><g><path d="M 15.140625 -19.765625 L 20.6875 -19.765625 L 20.6875 0 L 15.140625 0 L 15.140625 -1.8125 L 15.046875 -1.8125 C 14.460938 -1.03125 13.679688 -0.425781 12.703125 0 C 11.722656 0.425781 10.722656 0.640625 9.703125 0.640625 C 7.097656 0.640625 4.929688 -0.382812 3.203125 -2.4375 C 1.472656 -4.488281 0.609375 -7.003906 0.609375 -9.984375 C 0.609375 -11.835938 0.984375 -13.554688 1.734375 -15.140625 C 2.484375 -16.722656 3.546875 -17.992188 4.921875 -18.953125 C 6.304688 -19.921875 7.875 -20.40625 9.625 -20.40625 C 10.644531 -20.40625 11.644531 -20.191406 12.625 -19.765625 C 13.601562 -19.335938 14.441406 -18.71875 15.140625 -17.90625 Z M 10.953125 -15.421875 C 9.691406 -15.421875 8.601562 -14.875 7.6875 -13.78125 C 6.769531 -12.695312 6.3125 -11.40625 6.3125 -9.90625 C 6.3125 -8.394531 6.769531 -7.085938 7.6875 -5.984375 C 8.601562 -4.890625 9.703125 -4.34375 10.984375 -4.34375 C 12.296875 -4.34375 13.410156 -4.882812 14.328125 -5.96875 C 15.242188 -7.0625 15.703125 -8.375 15.703125 -9.90625 C 15.703125 -11.4375 15.238281 -12.738281 14.3125 -13.8125 C 13.382812 -14.882812 12.265625 -15.421875 10.953125 -15.421875 Z M 10.953125 -15.421875 "/></g></g></g><g fill="#edf2f4" fill-opacity="1"><g transform="translate(258.967211, 291.271537)"><g><path d="M 18.234375 -17.3125 C 18.847656 -18.269531 19.671875 -19.023438 20.703125 -19.578125 C 21.742188 -20.128906 22.835938 -20.40625 23.984375 -20.40625 C 26.109375 -20.40625 27.6875 -19.734375 28.71875 -18.390625 C 29.75 -17.046875 30.265625 -15.085938 30.265625 -12.515625 L 30.265625 0 L 24.640625 0 L 24.640625 -11.0625 C 24.640625 -12.625 24.441406 -13.820312 24.046875 -14.65625 C 23.660156 -15.488281 22.96875 -15.90625 21.96875 -15.90625 C 20.957031 -15.90625 20.203125 -15.441406 19.703125 -14.515625 C 19.203125 -13.585938 18.953125 -12.085938 18.953125 -10.015625 L 18.953125 0 L 13.328125 0 L 13.328125 -11.46875 C 13.328125 -12.945312 13.097656 -14.054688 12.640625 -14.796875 C 12.179688 -15.535156 11.507812 -15.90625 10.625 -15.90625 C 9.738281 -15.90625 9.019531 -15.515625 8.46875 -14.734375 C 7.914062 -13.953125 7.640625 -12.664062 7.640625 -10.875 L 7.640625 0 L 2.015625 0 L 2.015625 -19.765625 L 7.640625 -19.765625 L 7.640625 -17.984375 L 7.734375 -17.984375 C 8.296875 -18.765625 9.007812 -19.363281 9.875 -19.78125 C 10.75 -20.195312 11.644531 -20.40625 12.5625 -20.40625 C 15.082031 -20.40625 16.972656 -19.375 18.234375 -17.3125 Z M 18.234375 -17.3125 "/></g></g></g><g fill="#edf2f4" fill-opacity="1"><g transform="translate(291.237523, 291.271537)"><g><path d="M 7.640625 -34.125 L 7.640625 -17.953125 C 8.335938 -18.734375 9.171875 -19.335938 10.140625 -19.765625 C 11.109375 -20.191406 12.101562 -20.40625 13.125 -20.40625 C 14.78125 -20.40625 16.304688 -19.9375 17.703125 -19 C 19.097656 -18.0625 20.1875 -16.78125 20.96875 -15.15625 C 21.75 -13.53125 22.140625 -11.804688 22.140625 -9.984375 C 22.140625 -8.023438 21.75 -6.21875 20.96875 -4.5625 C 20.1875 -2.914062 19.09375 -1.632812 17.6875 -0.71875 C 16.28125 0.1875 14.71875 0.640625 13 0.640625 C 11.976562 0.640625 10.984375 0.425781 10.015625 0 C 9.054688 -0.425781 8.296875 -1.039062 7.734375 -1.84375 L 7.640625 -1.84375 L 7.640625 0 L 2.015625 0 L 2.015625 -34.125 Z M 11.71875 -15.421875 C 10.457031 -15.421875 9.367188 -14.875 8.453125 -13.78125 C 7.535156 -12.695312 7.078125 -11.40625 7.078125 -9.90625 C 7.078125 -8.375 7.535156 -7.0625 8.453125 -5.96875 C 9.367188 -4.882812 10.46875 -4.34375 11.75 -4.34375 C 13.125 -4.34375 14.242188 -4.90625 15.109375 -6.03125 C 15.984375 -7.164062 16.421875 -8.457031 16.421875 -9.90625 C 16.421875 -11.351562 15.976562 -12.632812 15.09375 -13.75 C 14.207031 -14.863281 13.082031 -15.421875 11.71875 -15.421875 Z M 11.71875 -15.421875 "/></g></g></g><g fill="#edf2f4" fill-opacity="1"><g transform="translate(313.97157, 291.271537)"><g><path d="M 7.53125 -19.765625 L 7.53125 -8.890625 C 7.53125 -5.703125 8.601562 -4.109375 10.75 -4.109375 C 12.894531 -4.109375 13.96875 -5.703125 13.96875 -8.890625 L 13.96875 -19.765625 L 19.609375 -19.765625 L 19.609375 -7.96875 C 19.609375 -5.257812 18.878906 -3.144531 17.421875 -1.625 C 15.972656 -0.113281 13.75 0.640625 10.75 0.640625 C 7.769531 0.640625 5.546875 -0.117188 4.078125 -1.640625 C 2.617188 -3.171875 1.890625 -5.28125 1.890625 -7.96875 L 1.890625 -19.765625 Z M 7.53125 -19.765625 "/></g></g></g><g fill="#edf2f4" fill-opacity="1"><g transform="translate(335.498504, 291.271537)"><g><path d="M 14.28125 -14.6875 C 13.59375 -15.175781 12.816406 -15.421875 11.953125 -15.421875 C 10.503906 -15.421875 9.421875 -14.929688 8.703125 -13.953125 C 7.992188 -12.972656 7.640625 -11.351562 7.640625 -9.09375 L 7.640625 0 L 2.015625 0 L 2.015625 -19.765625 L 7.640625 -19.765625 L 7.640625 -17.703125 L 7.734375 -17.703125 C 8.296875 -18.566406 8.988281 -19.234375 9.8125 -19.703125 C 10.644531 -20.171875 11.585938 -20.40625 12.640625 -20.40625 C 13.421875 -20.375 14.195312 -20.210938 14.96875 -19.921875 Z M 14.28125 -14.6875 "/></g></g></g><g fill="#edf2f4" fill-opacity="1"><g transform="translate(350.265575, 291.271537)"><g><path d="M 14.96875 -17.875 L 14.96875 -19.765625 L 20.609375 -19.765625 L 20.609375 -1 C 20.609375 2.726562 19.816406 5.582031 18.234375 7.5625 C 16.648438 9.550781 14.25 10.546875 11.03125 10.546875 C 8.320312 10.546875 6.019531 9.78125 4.125 8.25 C 2.226562 6.71875 1.203125 4.742188 1.046875 2.328125 L 7 2.328125 C 7.132812 3.378906 7.550781 4.21875 8.25 4.84375 C 8.945312 5.476562 9.832031 5.796875 10.90625 5.796875 C 12.40625 5.796875 13.457031 5.3125 14.0625 4.34375 C 14.664062 3.375 14.96875 1.96875 14.96875 0.125 L 14.96875 -1.96875 L 14.890625 -1.96875 C 14.296875 -1.164062 13.507812 -0.53125 12.53125 -0.0625 C 11.550781 0.40625 10.539062 0.640625 9.5 0.640625 C 6.863281 0.640625 4.722656 -0.34375 3.078125 -2.3125 C 1.429688 -4.28125 0.609375 -6.753906 0.609375 -9.734375 C 0.609375 -11.691406 1.003906 -13.503906 1.796875 -15.171875 C 2.585938 -16.835938 3.6875 -18.125 5.09375 -19.03125 C 6.5 -19.945312 8.0625 -20.40625 9.78125 -20.40625 C 10.71875 -20.40625 11.660156 -20.175781 12.609375 -19.71875 C 13.566406 -19.257812 14.328125 -18.644531 14.890625 -17.875 Z M 10.953125 -15.421875 C 9.660156 -15.421875 8.5625 -14.867188 7.65625 -13.765625 C 6.757812 -12.660156 6.3125 -11.359375 6.3125 -9.859375 C 6.3125 -8.378906 6.757812 -7.085938 7.65625 -5.984375 C 8.5625 -4.890625 9.671875 -4.34375 10.984375 -4.34375 C 12.273438 -4.34375 13.375 -4.882812 14.28125 -5.96875 C 15.195312 -7.0625 15.65625 -8.359375 15.65625 -9.859375 C 15.65625 -11.390625 15.195312 -12.695312 14.28125 -13.78125 C 13.375 -14.875 12.265625 -15.421875 10.953125 -15.421875 Z M 10.953125 -15.421875 "/></g></g></g></svg>