<svg xmlns="http://www.w3.org/2000/svg" xmlns:xlink="http://www.w3.org/1999/xlink" width="500" zoomAndPan="magnify" viewBox="0 0 375 374.999991" height="500" preserveAspectRatio="xMidYMid meet" version="1.0"><defs><g/><clipPath id="82ed9c8efd"><path d="M 47.476562 78 L 146 78 L 146 222 L 47.476562 222 Z M 47.476562 78 " clip-rule="nonzero"/></clipPath><clipPath id="d7f667a7cb"><path d="M 229 78 L 327.226562 78 L 327.226562 222 L 229 222 Z M 229 78 " clip-rule="nonzero"/></clipPath><clipPath id="200c4dbc58"><path d="M 138 41.648438 L 235 41.648438 L 235 259.148438 L 138 259.148438 Z M 138 41.648438 " clip-rule="nonzero"/></clipPath></defs><path fill="#6db5e7" d="M 135.742188 218.980469 C 134.195312 218.980469 132.675781 218.460938 131.460938 217.492188 L 53.230469 155.847656 C 51.550781 154.523438 50.585938 152.539062 50.585938 150.398438 C 50.585938 148.257812 51.550781 146.273438 53.226562 144.9375 L 131.460938 83.304688 C 132.675781 82.335938 134.195312 81.816406 135.742188 81.816406 C 137.878906 81.816406 139.875 82.773438 141.183594 84.460938 C 142.328125 85.917969 142.847656 87.738281 142.625 89.570312 C 142.410156 91.414062 141.480469 93.054688 140.027344 94.203125 L 68.730469 150.398438 L 140.027344 206.582031 C 141.480469 207.738281 142.410156 209.382812 142.625 211.214844 C 142.847656 213.058594 142.328125 214.867188 141.183594 216.332031 C 139.875 218.011719 137.878906 218.980469 135.742188 218.980469 " fill-opacity="1" fill-rule="nonzero"/><g clip-path="url(#82ed9c8efd)"><path fill="#edf2f4" d="M 135.742188 78.859375 C 133.535156 78.859375 131.375 79.605469 129.640625 80.976562 L 51.40625 142.621094 C 49.003906 144.523438 47.636719 147.347656 47.636719 150.398438 C 47.636719 153.449219 49.015625 156.285156 51.40625 158.175781 L 129.640625 219.820312 C 131.363281 221.179688 133.535156 221.9375 135.742188 221.9375 C 138.800781 221.9375 141.632812 220.554688 143.507812 218.152344 C 145.148438 216.085938 145.871094 213.496094 145.5625 210.871094 C 145.242188 208.25 143.933594 205.894531 141.855469 204.265625 L 73.5 150.398438 L 141.855469 96.53125 C 143.933594 94.886719 145.242188 92.546875 145.5625 89.921875 C 145.871094 87.300781 145.148438 84.710938 143.507812 82.628906 C 141.632812 80.230469 138.789062 78.859375 135.742188 78.859375 Z M 135.742188 84.769531 C 136.921875 84.769531 138.089844 85.289062 138.871094 86.28125 C 140.238281 88.019531 139.933594 90.527344 138.210938 91.886719 L 63.953125 150.398438 L 138.210938 208.910156 C 139.933594 210.269531 140.238281 212.777344 138.871094 214.5 C 138.089844 215.507812 136.921875 216.027344 135.742188 216.027344 C 134.882812 216.027344 134.019531 215.753906 133.289062 215.175781 L 55.054688 153.53125 C 54.097656 152.773438 53.535156 151.617188 53.535156 150.398438 C 53.535156 149.167969 54.097656 148.023438 55.054688 147.265625 L 133.289062 85.621094 C 134.007812 85.042969 134.882812 84.769531 135.742188 84.769531 " fill-opacity="1" fill-rule="nonzero"/></g><path fill="#6db5e7" d="M 238.960938 218.980469 C 236.828125 218.980469 234.84375 218.011719 233.511719 216.332031 C 231.148438 213.332031 231.667969 208.957031 234.679688 206.582031 L 305.984375 150.398438 L 234.679688 94.203125 C 231.667969 91.839844 231.148438 87.464844 233.511719 84.460938 C 234.84375 82.773438 236.828125 81.8125 238.960938 81.8125 C 240.507812 81.8125 242.03125 82.335938 243.246094 83.304688 L 321.480469 144.9375 C 323.15625 146.273438 324.113281 148.257812 324.113281 150.398438 C 324.113281 152.539062 323.15625 154.523438 321.46875 155.847656 L 243.246094 217.492188 C 242.03125 218.460938 240.507812 218.980469 238.960938 218.980469 " fill-opacity="1" fill-rule="nonzero"/><g clip-path="url(#d7f667a7cb)"><path fill="#edf2f4" d="M 238.960938 78.859375 C 235.917969 78.859375 233.085938 80.230469 231.195312 82.628906 C 227.820312 86.921875 228.566406 93.152344 232.847656 96.53125 L 301.207031 150.398438 L 232.847656 204.265625 C 228.566406 207.632812 227.820312 213.875 231.195312 218.152344 C 233.085938 220.554688 235.917969 221.9375 238.960938 221.9375 C 241.167969 221.9375 243.328125 221.179688 245.0625 219.820312 L 323.300781 158.175781 C 325.695312 156.285156 327.0625 153.449219 327.0625 150.398438 C 327.0625 147.347656 325.695312 144.523438 323.3125 142.621094 L 245.074219 80.976562 C 243.339844 79.605469 241.167969 78.859375 238.960938 78.859375 Z M 238.960938 84.769531 C 239.824219 84.769531 240.699219 85.042969 241.417969 85.621094 L 319.652344 147.265625 C 320.609375 148.023438 321.164062 149.167969 321.164062 150.398438 C 321.164062 151.617188 320.609375 152.773438 319.652344 153.53125 L 241.417969 215.175781 C 240.699219 215.753906 239.824219 216.027344 238.960938 216.027344 C 237.78125 216.027344 236.613281 215.507812 235.835938 214.5 C 234.476562 212.777344 234.773438 210.269531 236.496094 208.910156 L 310.753906 150.398438 L 236.496094 91.886719 C 234.773438 90.527344 234.476562 88.019531 235.835938 86.28125 C 236.613281 85.289062 237.792969 84.769531 238.960938 84.769531 " fill-opacity="1" fill-rule="nonzero"/></g><path fill="#6db5e7" d="M 148.476562 256.179688 C 147.617188 256.179688 146.777344 256.015625 145.976562 255.707031 C 144.253906 255.035156 142.882812 253.734375 142.140625 252.042969 C 141.382812 250.339844 141.347656 248.460938 142.011719 246.734375 L 218.414062 49.046875 C 219.441406 46.398438 222.039062 44.613281 224.871094 44.613281 C 225.734375 44.613281 226.582031 44.78125 227.386719 45.085938 C 230.9375 46.472656 232.71875 50.5 231.339844 54.070312 L 154.945312 251.75 C 153.917969 254.394531 151.308594 256.179688 148.476562 256.179688 " fill-opacity="1" fill-rule="nonzero"/><g clip-path="url(#200c4dbc58)"><path fill="#edf2f4" d="M 224.871094 41.660156 C 220.824219 41.660156 217.117188 44.214844 215.664062 47.984375 L 139.261719 245.660156 C 138.316406 248.132812 138.375 250.8125 139.4375 253.238281 C 140.511719 255.648438 142.445312 257.515625 144.914062 258.460938 C 146.058594 258.910156 147.25 259.136719 148.476562 259.136719 C 152.527344 259.136719 156.230469 256.59375 157.695312 252.8125 L 234.089844 55.136719 C 236.058594 50.039062 233.523438 44.296875 228.433594 42.332031 C 227.300781 41.882812 226.097656 41.660156 224.871094 41.660156 Z M 224.871094 47.570312 C 225.355469 47.570312 225.839844 47.664062 226.3125 47.84375 C 228.363281 48.632812 229.378906 50.9375 228.589844 52.996094 L 152.183594 250.671875 C 151.582031 252.257812 150.070312 253.226562 148.476562 253.226562 C 147.992188 253.226562 147.507812 253.144531 147.039062 252.953125 C 144.984375 252.160156 143.96875 249.84375 144.773438 247.800781 L 221.164062 50.125 C 221.777344 48.539062 223.277344 47.570312 224.871094 47.570312 " fill-opacity="1" fill-rule="nonzero"/></g><g fill="#edf2f4" fill-opacity="1"><g transform="translate(48.572161, 314.367521)"><g><path d="M 15.390625 -43.15625 C 17.910156 -43.15625 20.445312 -42.675781 23 -41.71875 C 25.5625 -40.769531 27.84375 -39.300781 29.84375 -37.3125 C 31.851562 -35.332031 33.367188 -32.976562 34.390625 -30.25 C 35.421875 -27.519531 35.9375 -24.609375 35.9375 -21.515625 C 35.9375 -17.359375 35.007812 -13.628906 33.15625 -10.328125 C 31.3125 -7.023438 28.804688 -4.476562 25.640625 -2.6875 C 22.472656 -0.894531 19.039062 0 15.34375 0 L 3.09375 0 L 3.09375 -43.15625 Z M 11.5 -7.328125 L 12.703125 -7.328125 C 17.585938 -7.328125 21.234375 -8.519531 23.640625 -10.90625 C 26.046875 -13.289062 27.25 -16.847656 27.25 -21.578125 C 27.25 -26.234375 26.0625 -29.769531 23.6875 -32.1875 C 21.320312 -34.613281 17.660156 -35.828125 12.703125 -35.828125 L 11.5 -35.828125 Z M 11.5 -7.328125 "/></g></g></g><g fill="#edf2f4" fill-opacity="1"><g transform="translate(85.540862, 314.367521)"><g><path d="M 2.515625 -39.890625 C 2.515625 -41.148438 2.972656 -42.253906 3.890625 -43.203125 C 4.804688 -44.160156 5.929688 -44.640625 7.265625 -44.640625 C 8.597656 -44.640625 9.722656 -44.160156 10.640625 -43.203125 C 11.554688 -42.253906 12.015625 -41.148438 12.015625 -39.890625 C 12.015625 -38.554688 11.554688 -37.429688 10.640625 -36.515625 C 9.722656 -35.597656 8.597656 -35.140625 7.265625 -35.140625 C 5.929688 -35.140625 4.804688 -35.597656 3.890625 -36.515625 C 2.972656 -37.429688 2.515625 -38.554688 2.515625 -39.890625 Z M 11.28125 -28.109375 L 11.28125 0 L 3.265625 0 L 3.265625 -28.109375 Z M 11.28125 -28.109375 "/></g></g></g><g fill="#edf2f4" fill-opacity="1"><g transform="translate(100.019311, 314.367521)"><g><path d="M 21.296875 -25.40625 L 21.296875 -28.109375 L 29.296875 -28.109375 L 29.296875 -1.4375 C 29.296875 3.875 28.171875 7.941406 25.921875 10.765625 C 23.671875 13.585938 20.257812 15 15.6875 15 C 11.832031 15 8.554688 13.910156 5.859375 11.734375 C 3.171875 9.554688 1.710938 6.75 1.484375 3.3125 L 9.953125 3.3125 C 10.148438 4.800781 10.742188 5.992188 11.734375 6.890625 C 12.722656 7.785156 13.984375 8.234375 15.515625 8.234375 C 17.648438 8.234375 19.144531 7.546875 20 6.171875 C 20.863281 4.804688 21.296875 2.804688 21.296875 0.171875 L 21.296875 -2.796875 L 21.171875 -2.796875 C 20.335938 -1.660156 19.222656 -0.753906 17.828125 -0.078125 C 16.429688 0.585938 14.988281 0.921875 13.5 0.921875 C 9.757812 0.921875 6.71875 -0.476562 4.375 -3.28125 C 2.03125 -6.09375 0.859375 -9.613281 0.859375 -13.84375 C 0.859375 -16.632812 1.421875 -19.210938 2.546875 -21.578125 C 3.671875 -23.941406 5.234375 -25.769531 7.234375 -27.0625 C 9.242188 -28.363281 11.46875 -29.015625 13.90625 -29.015625 C 15.238281 -29.015625 16.582031 -28.691406 17.9375 -28.046875 C 19.289062 -27.398438 20.367188 -26.519531 21.171875 -25.40625 Z M 15.5625 -21.921875 C 13.738281 -21.921875 12.1875 -21.140625 10.90625 -19.578125 C 9.625 -18.015625 8.984375 -16.160156 8.984375 -14.015625 C 8.984375 -11.921875 9.625 -10.09375 10.90625 -8.53125 C 12.1875 -6.96875 13.757812 -6.1875 15.625 -6.1875 C 17.457031 -6.1875 19.019531 -6.957031 20.3125 -8.5 C 21.613281 -10.039062 22.265625 -11.878906 22.265625 -14.015625 C 22.265625 -16.191406 21.613281 -18.050781 20.3125 -19.59375 C 19.019531 -21.144531 17.4375 -21.921875 15.5625 -21.921875 Z M 15.5625 -21.921875 "/></g></g></g><g fill="#edf2f4" fill-opacity="1"><g transform="translate(132.180935, 314.367521)"><g><path d="M 2.515625 -39.890625 C 2.515625 -41.148438 2.972656 -42.253906 3.890625 -43.203125 C 4.804688 -44.160156 5.929688 -44.640625 7.265625 -44.640625 C 8.597656 -44.640625 9.722656 -44.160156 10.640625 -43.203125 C 11.554688 -42.253906 12.015625 -41.148438 12.015625 -39.890625 C 12.015625 -38.554688 11.554688 -37.429688 10.640625 -36.515625 C 9.722656 -35.597656 8.597656 -35.140625 7.265625 -35.140625 C 5.929688 -35.140625 4.804688 -35.597656 3.890625 -36.515625 C 2.972656 -37.429688 2.515625 -38.554688 2.515625 -39.890625 Z M 11.28125 -28.109375 L 11.28125 0 L 3.265625 0 L 3.265625 -28.109375 Z M 11.28125 -28.109375 "/></g></g></g><g fill="#edf2f4" fill-opacity="1"><g transform="translate(146.659384, 314.367521)"><g><path d="M 11.84375 -37.609375 L 11.84375 -28.109375 L 16.765625 -28.109375 L 16.765625 -21.34375 L 11.84375 -21.34375 L 11.84375 0 L 3.828125 0 L 3.828125 -21.34375 L 1.09375 -21.34375 L 1.09375 -28.109375 L 3.828125 -28.109375 L 3.828125 -37.609375 Z M 11.84375 -37.609375 "/></g></g></g><g fill="#edf2f4" fill-opacity="1"><g transform="translate(162.339612, 314.367521)"><g><path d="M 21.515625 -28.109375 L 29.421875 -28.109375 L 29.421875 0 L 21.515625 0 L 21.515625 -2.578125 L 21.40625 -2.578125 C 20.5625 -1.472656 19.441406 -0.613281 18.046875 0 C 16.660156 0.613281 15.242188 0.921875 13.796875 0.921875 C 10.085938 0.921875 7.003906 -0.535156 4.546875 -3.453125 C 2.085938 -6.378906 0.859375 -9.957031 0.859375 -14.1875 C 0.859375 -16.820312 1.390625 -19.265625 2.453125 -21.515625 C 3.523438 -23.765625 5.039062 -25.578125 7 -26.953125 C 8.96875 -28.328125 11.191406 -29.015625 13.671875 -29.015625 C 15.128906 -29.015625 16.550781 -28.707031 17.9375 -28.09375 C 19.332031 -27.488281 20.523438 -26.613281 21.515625 -25.46875 Z M 15.5625 -21.921875 C 13.769531 -21.921875 12.222656 -21.144531 10.921875 -19.59375 C 9.628906 -18.050781 8.984375 -16.210938 8.984375 -14.078125 C 8.984375 -11.941406 9.628906 -10.09375 10.921875 -8.53125 C 12.222656 -6.96875 13.789062 -6.1875 15.625 -6.1875 C 17.488281 -6.1875 19.070312 -6.957031 20.375 -8.5 C 21.675781 -10.039062 22.328125 -11.898438 22.328125 -14.078125 C 22.328125 -16.253906 21.664062 -18.101562 20.34375 -19.625 C 19.03125 -21.15625 17.4375 -21.921875 15.5625 -21.921875 Z M 15.5625 -21.921875 "/></g></g></g><g fill="#edf2f4" fill-opacity="1"><g transform="translate(194.672923, 314.367521)"><g><path d="M 10.875 -48.53125 L 10.875 0 L 2.859375 0 L 2.859375 -48.53125 Z M 10.875 -48.53125 "/></g></g></g><g fill="#edf2f4" fill-opacity="1"><g transform="translate(208.350205, 314.367521)"><g/></g></g><g fill="#edf2f4" fill-opacity="1"><g transform="translate(224.888836, 314.367521)"><g><path d="M 11.5 -43.15625 L 11.5 -26.15625 L 27.078125 -26.15625 L 27.078125 -43.15625 L 35.484375 -43.15625 L 35.484375 0 L 27.078125 0 L 27.078125 -19.28125 L 11.5 -19.28125 L 11.5 0 L 3.09375 0 L 3.09375 -43.15625 Z M 11.5 -43.15625 "/></g></g></g><g fill="#edf2f4" fill-opacity="1"><g transform="translate(263.459908, 314.367521)"><g><path d="M 10.703125 -28.109375 L 10.703125 -12.65625 C 10.703125 -8.113281 12.226562 -5.84375 15.28125 -5.84375 C 18.332031 -5.84375 19.859375 -8.113281 19.859375 -12.65625 L 19.859375 -28.109375 L 27.875 -28.109375 L 27.875 -11.328125 C 27.875 -7.472656 26.84375 -4.46875 24.78125 -2.3125 C 22.71875 -0.15625 19.550781 0.921875 15.28125 0.921875 C 11.039062 0.921875 7.878906 -0.164062 5.796875 -2.34375 C 3.722656 -4.519531 2.6875 -7.515625 2.6875 -11.328125 L 2.6875 -28.109375 Z M 10.703125 -28.109375 "/></g></g></g><g fill="#edf2f4" fill-opacity="1"><g transform="translate(294.076414, 314.367521)"><g><path d="M 10.875 -48.53125 L 10.875 -25.53125 C 11.863281 -26.632812 13.046875 -27.488281 14.421875 -28.09375 C 15.796875 -28.707031 17.207031 -29.015625 18.65625 -29.015625 C 21.019531 -29.015625 23.191406 -28.347656 25.171875 -27.015625 C 27.160156 -25.679688 28.707031 -23.859375 29.8125 -21.546875 C 30.925781 -19.242188 31.484375 -16.789062 31.484375 -14.1875 C 31.484375 -11.40625 30.925781 -8.835938 29.8125 -6.484375 C 28.707031 -4.140625 27.15625 -2.316406 25.15625 -1.015625 C 23.15625 0.273438 20.929688 0.921875 18.484375 0.921875 C 17.035156 0.921875 15.625 0.613281 14.25 0 C 12.875 -0.613281 11.785156 -1.488281 10.984375 -2.625 L 10.875 -2.625 L 10.875 0 L 2.859375 0 L 2.859375 -48.53125 Z M 16.65625 -21.921875 C 14.863281 -21.921875 13.316406 -21.144531 12.015625 -19.59375 C 10.722656 -18.050781 10.078125 -16.210938 10.078125 -14.078125 C 10.078125 -11.898438 10.722656 -10.039062 12.015625 -8.5 C 13.316406 -6.957031 14.882812 -6.1875 16.71875 -6.1875 C 18.65625 -6.1875 20.242188 -6.984375 21.484375 -8.578125 C 22.734375 -10.179688 23.359375 -12.015625 23.359375 -14.078125 C 23.359375 -16.140625 22.726562 -17.960938 21.46875 -19.546875 C 20.207031 -21.128906 18.601562 -21.921875 16.65625 -21.921875 Z M 16.65625 -21.921875 "/></g></g></g></svg>