<svg xmlns="http://www.w3.org/2000/svg" xmlns:xlink="http://www.w3.org/1999/xlink" width="500" zoomAndPan="magnify" viewBox="0 0 375 374.999991" height="500" preserveAspectRatio="xMidYMid meet" version="1.0"><defs><g/><clipPath id="d1373cfd94"><path d="M 116.898438 96 L 167 96 L 167 169 L 116.898438 169 Z M 116.898438 96 " clip-rule="nonzero"/></clipPath><clipPath id="c3107c8138"><path d="M 208 96 L 257.898438 96 L 257.898438 169 L 208 169 Z M 208 96 " clip-rule="nonzero"/></clipPath><clipPath id="cbd3ffdb2b"><path d="M 162 77.890625 L 212 77.890625 L 212 187.390625 L 162 187.390625 Z M 162 77.890625 " clip-rule="nonzero"/></clipPath></defs><path fill="#6db5e7" d="M 161.386719 167.167969 C 160.605469 167.167969 159.839844 166.90625 159.226562 166.417969 L 119.800781 135.382812 C 118.949219 134.71875 118.464844 133.71875 118.464844 132.640625 C 118.464844 131.5625 118.949219 130.5625 119.796875 129.890625 L 159.226562 98.863281 C 159.839844 98.375 160.605469 98.113281 161.386719 98.113281 C 162.460938 98.113281 163.46875 98.59375 164.128906 99.445312 C 164.707031 100.179688 164.96875 101.09375 164.855469 102.015625 C 164.746094 102.945312 164.277344 103.773438 163.546875 104.351562 L 127.609375 132.640625 L 163.546875 160.925781 C 164.277344 161.511719 164.746094 162.335938 164.855469 163.257812 C 164.96875 164.1875 164.707031 165.097656 164.128906 165.835938 C 163.46875 166.679688 162.460938 167.167969 161.386719 167.167969 " fill-opacity="1" fill-rule="nonzero"/><g clip-path="url(#d1373cfd94)"><path fill="#edf2f4" d="M 161.386719 96.625 C 160.273438 96.625 159.183594 97 158.3125 97.691406 L 118.878906 128.726562 C 117.667969 129.683594 116.976562 131.105469 116.976562 132.640625 C 116.976562 134.175781 117.671875 135.605469 118.878906 136.558594 L 158.3125 167.59375 C 159.179688 168.277344 160.273438 168.65625 161.386719 168.65625 C 162.925781 168.65625 164.355469 167.960938 165.300781 166.753906 C 166.128906 165.710938 166.488281 164.40625 166.335938 163.085938 C 166.175781 161.765625 165.515625 160.582031 164.46875 159.761719 L 130.015625 132.640625 L 164.46875 105.523438 C 165.515625 104.695312 166.175781 103.515625 166.335938 102.195312 C 166.488281 100.875 166.128906 99.570312 165.300781 98.523438 C 164.355469 97.316406 162.921875 96.625 161.386719 96.625 Z M 161.386719 99.601562 C 161.980469 99.601562 162.570312 99.863281 162.960938 100.363281 C 163.652344 101.238281 163.496094 102.5 162.628906 103.183594 L 125.203125 132.640625 L 162.628906 162.097656 C 163.496094 162.785156 163.652344 164.046875 162.960938 164.914062 C 162.570312 165.417969 161.980469 165.683594 161.386719 165.683594 C 160.953125 165.683594 160.519531 165.542969 160.148438 165.253906 L 120.71875 134.21875 C 120.234375 133.835938 119.953125 133.253906 119.953125 132.640625 C 119.953125 132.023438 120.234375 131.445312 120.71875 131.0625 L 160.148438 100.03125 C 160.511719 99.738281 160.953125 99.601562 161.386719 99.601562 " fill-opacity="1" fill-rule="nonzero"/></g><path fill="#6db5e7" d="M 213.410156 167.167969 C 212.335938 167.167969 211.335938 166.679688 210.664062 165.835938 C 209.472656 164.324219 209.734375 162.121094 211.25 160.925781 L 247.191406 132.640625 L 211.25 104.351562 C 209.734375 103.160156 209.472656 100.957031 210.664062 99.445312 C 211.335938 98.59375 212.335938 98.113281 213.410156 98.113281 C 214.191406 98.113281 214.957031 98.375 215.570312 98.863281 L 255.003906 129.890625 C 255.847656 130.5625 256.328125 131.5625 256.328125 132.640625 C 256.328125 133.71875 255.847656 134.71875 254.996094 135.382812 L 215.570312 166.417969 C 214.957031 166.90625 214.191406 167.167969 213.410156 167.167969 " fill-opacity="1" fill-rule="nonzero"/><g clip-path="url(#c3107c8138)"><path fill="#edf2f4" d="M 213.410156 96.625 C 211.875 96.625 210.449219 97.316406 209.496094 98.523438 C 207.796875 100.683594 208.171875 103.820312 210.328125 105.523438 L 244.78125 132.640625 L 210.328125 159.761719 C 208.171875 161.457031 207.796875 164.597656 209.496094 166.753906 C 210.449219 167.960938 211.875 168.65625 213.410156 168.65625 C 214.523438 168.65625 215.613281 168.277344 216.488281 167.59375 L 255.917969 136.558594 C 257.125 135.605469 257.816406 134.175781 257.816406 132.640625 C 257.816406 131.105469 257.125 129.683594 255.925781 128.726562 L 216.492188 97.691406 C 215.617188 97 214.523438 96.625 213.410156 96.625 Z M 213.410156 99.601562 C 213.84375 99.601562 214.285156 99.738281 214.648438 100.03125 L 254.082031 131.0625 C 254.5625 131.445312 254.839844 132.023438 254.839844 132.640625 C 254.839844 133.253906 254.5625 133.835938 254.082031 134.21875 L 214.648438 165.253906 C 214.285156 165.542969 213.84375 165.683594 213.410156 165.683594 C 212.816406 165.683594 212.226562 165.417969 211.835938 164.914062 C 211.152344 164.046875 211.300781 162.785156 212.167969 162.097656 L 249.59375 132.640625 L 212.167969 103.183594 C 211.300781 102.5 211.152344 101.238281 211.835938 100.363281 C 212.226562 99.863281 212.820312 99.601562 213.410156 99.601562 " fill-opacity="1" fill-rule="nonzero"/></g><path fill="#6db5e7" d="M 167.804688 185.898438 C 167.371094 185.898438 166.949219 185.8125 166.542969 185.660156 C 165.675781 185.320312 164.984375 184.664062 164.609375 183.816406 C 164.230469 182.957031 164.210938 182.011719 164.542969 181.144531 L 203.054688 81.617188 C 203.574219 80.285156 204.882812 79.386719 206.308594 79.386719 C 206.742188 79.386719 207.171875 79.46875 207.574219 79.625 C 209.367188 80.320312 210.265625 82.347656 209.566406 84.144531 L 171.0625 183.664062 C 170.546875 185 169.230469 185.898438 167.804688 185.898438 " fill-opacity="1" fill-rule="nonzero"/><g clip-path="url(#cbd3ffdb2b)"><path fill="#edf2f4" d="M 206.308594 77.898438 C 204.269531 77.898438 202.402344 79.183594 201.667969 81.082031 L 163.160156 180.601562 C 162.683594 181.84375 162.710938 183.195312 163.246094 184.414062 C 163.789062 185.628906 164.765625 186.570312 166.007812 187.046875 C 166.585938 187.273438 167.1875 187.386719 167.804688 187.386719 C 169.84375 187.386719 171.710938 186.105469 172.449219 184.203125 L 210.953125 84.679688 C 211.949219 82.117188 210.667969 79.222656 208.105469 78.238281 C 207.535156 78.011719 206.925781 77.898438 206.308594 77.898438 Z M 206.308594 80.871094 C 206.550781 80.871094 206.796875 80.921875 207.035156 81.007812 C 208.070312 81.410156 208.582031 82.570312 208.183594 83.605469 L 169.671875 183.125 C 169.367188 183.921875 168.609375 184.410156 167.804688 184.410156 C 167.5625 184.410156 167.316406 184.367188 167.078125 184.273438 C 166.042969 183.875 165.53125 182.707031 165.9375 181.679688 L 204.441406 82.160156 C 204.75 81.359375 205.503906 80.871094 206.308594 80.871094 " fill-opacity="1" fill-rule="nonzero"/></g><g fill="#edf2f4" fill-opacity="1"><g transform="translate(2.132673, 243.012792)"><g><path d="M 10.828125 -30.34375 C 12.597656 -30.34375 14.378906 -30.007812 16.171875 -29.34375 C 17.972656 -28.675781 19.578125 -27.644531 20.984375 -26.25 C 22.398438 -24.851562 23.46875 -23.191406 24.1875 -21.265625 C 24.914062 -19.347656 25.28125 -17.304688 25.28125 -15.140625 C 25.28125 -12.210938 24.628906 -9.585938 23.328125 -7.265625 C 22.023438 -4.941406 20.257812 -3.148438 18.03125 -1.890625 C 15.800781 -0.628906 13.382812 0 10.78125 0 L 2.171875 0 L 2.171875 -30.34375 Z M 8.09375 -5.15625 L 8.9375 -5.15625 C 12.375 -5.15625 14.9375 -5.992188 16.625 -7.671875 C 18.3125 -9.347656 19.15625 -11.847656 19.15625 -15.171875 C 19.15625 -18.441406 18.320312 -20.929688 16.65625 -22.640625 C 15 -24.347656 12.425781 -25.203125 8.9375 -25.203125 L 8.09375 -25.203125 Z M 8.09375 -5.15625 "/></g></g></g><g fill="#edf2f4" fill-opacity="1"><g transform="translate(28.125948, 243.012792)"><g><path d="M 1.765625 -28.046875 C 1.765625 -28.929688 2.085938 -29.707031 2.734375 -30.375 C 3.378906 -31.050781 4.171875 -31.390625 5.109375 -31.390625 C 6.046875 -31.390625 6.835938 -31.050781 7.484375 -30.375 C 8.128906 -29.707031 8.453125 -28.929688 8.453125 -28.046875 C 8.453125 -27.109375 8.128906 -26.316406 7.484375 -25.671875 C 6.835938 -25.035156 6.046875 -24.71875 5.109375 -24.71875 C 4.171875 -24.71875 3.378906 -25.035156 2.734375 -25.671875 C 2.085938 -26.316406 1.765625 -27.109375 1.765625 -28.046875 Z M 7.921875 -19.765625 L 7.921875 0 L 2.296875 0 L 2.296875 -19.765625 Z M 7.921875 -19.765625 "/></g></g></g><g fill="#edf2f4" fill-opacity="1"><g transform="translate(38.305974, 243.012792)"><g><path d="M 14.96875 -17.875 L 14.96875 -19.765625 L 20.609375 -19.765625 L 20.609375 -1 C 20.609375 2.726562 19.816406 5.582031 18.234375 7.5625 C 16.648438 9.550781 14.25 10.546875 11.03125 10.546875 C 8.320312 10.546875 6.019531 9.78125 4.125 8.25 C 2.226562 6.71875 1.203125 4.742188 1.046875 2.328125 L 7 2.328125 C 7.132812 3.378906 7.550781 4.21875 8.25 4.84375 C 8.945312 5.476562 9.832031 5.796875 10.90625 5.796875 C 12.40625 5.796875 13.457031 5.3125 14.0625 4.34375 C 14.664062 3.375 14.96875 1.96875 14.96875 0.125 L 14.96875 -1.96875 L 14.890625 -1.96875 C 14.296875 -1.164062 13.507812 -0.53125 12.53125 -0.0625 C 11.550781 0.40625 10.539062 0.640625 9.5 0.640625 C 6.863281 0.640625 4.722656 -0.34375 3.078125 -2.3125 C 1.429688 -4.28125 0.609375 -6.753906 0.609375 -9.734375 C 0.609375 -11.691406 1.003906 -13.503906 1.796875 -15.171875 C 2.585938 -16.835938 3.6875 -18.125 5.09375 -19.03125 C 6.5 -19.945312 8.0625 -20.40625 9.78125 -20.40625 C 10.71875 -20.40625 11.660156 -20.175781 12.609375 -19.71875 C 13.566406 -19.257812 14.328125 -18.644531 14.890625 -17.875 Z M 10.953125 -15.421875 C 9.660156 -15.421875 8.5625 -14.867188 7.65625 -13.765625 C 6.757812 -12.660156 6.3125 -11.359375 6.3125 -9.859375 C 6.3125 -8.378906 6.757812 -7.085938 7.65625 -5.984375 C 8.5625 -4.890625 9.671875 -4.34375 10.984375 -4.34375 C 12.273438 -4.34375 13.375 -4.882812 14.28125 -5.96875 C 15.195312 -7.0625 15.65625 -8.359375 15.65625 -9.859375 C 15.65625 -11.390625 15.195312 -12.695312 14.28125 -13.78125 C 13.375 -14.875 12.265625 -15.421875 10.953125 -15.421875 Z M 10.953125 -15.421875 "/></g></g></g><g fill="#edf2f4" fill-opacity="1"><g transform="translate(60.919317, 243.012792)"><g><path d="M 1.765625 -28.046875 C 1.765625 -28.929688 2.085938 -29.707031 2.734375 -30.375 C 3.378906 -31.050781 4.171875 -31.390625 5.109375 -31.390625 C 6.046875 -31.390625 6.835938 -31.050781 7.484375 -30.375 C 8.128906 -29.707031 8.453125 -28.929688 8.453125 -28.046875 C 8.453125 -27.109375 8.128906 -26.316406 7.484375 -25.671875 C 6.835938 -25.035156 6.046875 -24.71875 5.109375 -24.71875 C 4.171875 -24.71875 3.378906 -25.035156 2.734375 -25.671875 C 2.085938 -26.316406 1.765625 -27.109375 1.765625 -28.046875 Z M 7.921875 -19.765625 L 7.921875 0 L 2.296875 0 L 2.296875 -19.765625 Z M 7.921875 -19.765625 "/></g></g></g><g fill="#edf2f4" fill-opacity="1"><g transform="translate(71.099343, 243.012792)"><g><path d="M 8.328125 -26.4375 L 8.328125 -19.765625 L 11.796875 -19.765625 L 11.796875 -15.015625 L 8.328125 -15.015625 L 8.328125 0 L 2.703125 0 L 2.703125 -15.015625 L 0.765625 -15.015625 L 0.765625 -19.765625 L 2.703125 -19.765625 L 2.703125 -26.4375 Z M 8.328125 -26.4375 "/></g></g></g><g fill="#edf2f4" fill-opacity="1"><g transform="translate(82.124358, 243.012792)"><g><path d="M 15.140625 -19.765625 L 20.6875 -19.765625 L 20.6875 0 L 15.140625 0 L 15.140625 -1.8125 L 15.046875 -1.8125 C 14.460938 -1.03125 13.679688 -0.425781 12.703125 0 C 11.722656 0.425781 10.722656 0.640625 9.703125 0.640625 C 7.097656 0.640625 4.929688 -0.382812 3.203125 -2.4375 C 1.472656 -4.488281 0.609375 -7.003906 0.609375 -9.984375 C 0.609375 -11.835938 0.984375 -13.554688 1.734375 -15.140625 C 2.484375 -16.722656 3.546875 -17.992188 4.921875 -18.953125 C 6.304688 -19.921875 7.875 -20.40625 9.625 -20.40625 C 10.644531 -20.40625 11.644531 -20.191406 12.625 -19.765625 C 13.601562 -19.335938 14.441406 -18.71875 15.140625 -17.90625 Z M 10.953125 -15.421875 C 9.691406 -15.421875 8.601562 -14.875 7.6875 -13.78125 C 6.769531 -12.695312 6.3125 -11.40625 6.3125 -9.90625 C 6.3125 -8.394531 6.769531 -7.085938 7.6875 -5.984375 C 8.601562 -4.890625 9.703125 -4.34375 10.984375 -4.34375 C 12.296875 -4.34375 13.410156 -4.882812 14.328125 -5.96875 C 15.242188 -7.0625 15.703125 -8.375 15.703125 -9.90625 C 15.703125 -11.4375 15.238281 -12.738281 14.3125 -13.8125 C 13.382812 -14.882812 12.265625 -15.421875 10.953125 -15.421875 Z M 10.953125 -15.421875 "/></g></g></g><g fill="#edf2f4" fill-opacity="1"><g transform="translate(104.858418, 243.012792)"><g><path d="M 7.640625 -34.125 L 7.640625 0 L 2.015625 0 L 2.015625 -34.125 Z M 7.640625 -34.125 "/></g></g></g><g fill="#edf2f4" fill-opacity="1"><g transform="translate(114.475131, 243.012792)"><g/></g></g><g fill="#edf2f4" fill-opacity="1"><g transform="translate(126.103702, 243.012792)"><g><path d="M 8.09375 -30.34375 L 8.09375 -18.390625 L 19.03125 -18.390625 L 19.03125 -30.34375 L 24.953125 -30.34375 L 24.953125 0 L 19.03125 0 L 19.03125 -13.5625 L 8.09375 -13.5625 L 8.09375 0 L 2.171875 0 L 2.171875 -30.34375 Z M 8.09375 -30.34375 "/></g></g></g><g fill="#edf2f4" fill-opacity="1"><g transform="translate(153.22363, 243.012792)"><g><path d="M 7.53125 -19.765625 L 7.53125 -8.890625 C 7.53125 -5.703125 8.601562 -4.109375 10.75 -4.109375 C 12.894531 -4.109375 13.96875 -5.703125 13.96875 -8.890625 L 13.96875 -19.765625 L 19.609375 -19.765625 L 19.609375 -7.96875 C 19.609375 -5.257812 18.878906 -3.144531 17.421875 -1.625 C 15.972656 -0.113281 13.75 0.640625 10.75 0.640625 C 7.769531 0.640625 5.546875 -0.117188 4.078125 -1.640625 C 2.617188 -3.171875 1.890625 -5.28125 1.890625 -7.96875 L 1.890625 -19.765625 Z M 7.53125 -19.765625 "/></g></g></g><g fill="#edf2f4" fill-opacity="1"><g transform="translate(174.750578, 243.012792)"><g><path d="M 7.640625 -34.125 L 7.640625 -17.953125 C 8.335938 -18.734375 9.171875 -19.335938 10.140625 -19.765625 C 11.109375 -20.191406 12.101562 -20.40625 13.125 -20.40625 C 14.78125 -20.40625 16.304688 -19.9375 17.703125 -19 C 19.097656 -18.0625 20.1875 -16.78125 20.96875 -15.15625 C 21.75 -13.53125 22.140625 -11.804688 22.140625 -9.984375 C 22.140625 -8.023438 21.75 -6.21875 20.96875 -4.5625 C 20.1875 -2.914062 19.09375 -1.632812 17.6875 -0.71875 C 16.28125 0.1875 14.71875 0.640625 13 0.640625 C 11.976562 0.640625 10.984375 0.425781 10.015625 0 C 9.054688 -0.425781 8.296875 -1.039062 7.734375 -1.84375 L 7.640625 -1.84375 L 7.640625 0 L 2.015625 0 L 2.015625 -34.125 Z M 11.71875 -15.421875 C 10.457031 -15.421875 9.367188 -14.875 8.453125 -13.78125 C 7.535156 -12.695312 7.078125 -11.40625 7.078125 -9.90625 C 7.078125 -8.375 7.535156 -7.0625 8.453125 -5.96875 C 9.367188 -4.882812 10.46875 -4.34375 11.75 -4.34375 C 13.125 -4.34375 14.242188 -4.90625 15.109375 -6.03125 C 15.984375 -7.164062 16.421875 -8.457031 16.421875 -9.90625 C 16.421875 -11.351562 15.976562 -12.632812 15.09375 -13.75 C 14.207031 -14.863281 13.082031 -15.421875 11.71875 -15.421875 Z M 11.71875 -15.421875 "/></g></g></g><g fill="#edf2f4" fill-opacity="1"><g transform="translate(197.484638, 243.012792)"><g/></g></g><g fill="#edf2f4" fill-opacity="1"><g transform="translate(209.11321, 243.012792)"><g><path d="M 8.09375 -30.34375 L 8.09375 -18.390625 L 19.03125 -18.390625 L 19.03125 -30.34375 L 24.953125 -30.34375 L 24.953125 0 L 19.03125 0 L 19.03125 -13.5625 L 8.09375 -13.5625 L 8.09375 0 L 2.171875 0 L 2.171875 -30.34375 Z M 8.09375 -30.34375 "/></g></g></g><g fill="#edf2f4" fill-opacity="1"><g transform="translate(236.233138, 243.012792)"><g><path d="M 15.140625 -19.765625 L 20.6875 -19.765625 L 20.6875 0 L 15.140625 0 L 15.140625 -1.8125 L 15.046875 -1.8125 C 14.460938 -1.03125 13.679688 -0.425781 12.703125 0 C 11.722656 0.425781 10.722656 0.640625 9.703125 0.640625 C 7.097656 0.640625 4.929688 -0.382812 3.203125 -2.4375 C 1.472656 -4.488281 0.609375 -7.003906 0.609375 -9.984375 C 0.609375 -11.835938 0.984375 -13.554688 1.734375 -15.140625 C 2.484375 -16.722656 3.546875 -17.992188 4.921875 -18.953125 C 6.304688 -19.921875 7.875 -20.40625 9.625 -20.40625 C 10.644531 -20.40625 11.644531 -20.191406 12.625 -19.765625 C 13.601562 -19.335938 14.441406 -18.71875 15.140625 -17.90625 Z M 10.953125 -15.421875 C 9.691406 -15.421875 8.601562 -14.875 7.6875 -13.78125 C 6.769531 -12.695312 6.3125 -11.40625 6.3125 -9.90625 C 6.3125 -8.394531 6.769531 -7.085938 7.6875 -5.984375 C 8.601562 -4.890625 9.703125 -4.34375 10.984375 -4.34375 C 12.296875 -4.34375 13.410156 -4.882812 14.328125 -5.96875 C 15.242188 -7.0625 15.703125 -8.375 15.703125 -9.90625 C 15.703125 -11.4375 15.238281 -12.738281 14.3125 -13.8125 C 13.382812 -14.882812 12.265625 -15.421875 10.953125 -15.421875 Z M 10.953125 -15.421875 "/></g></g></g><g fill="#edf2f4" fill-opacity="1"><g transform="translate(258.967211, 243.012792)"><g><path d="M 18.234375 -17.3125 C 18.847656 -18.269531 19.671875 -19.023438 20.703125 -19.578125 C 21.742188 -20.128906 22.835938 -20.40625 23.984375 -20.40625 C 26.109375 -20.40625 27.6875 -19.734375 28.71875 -18.390625 C 29.75 -17.046875 30.265625 -15.085938 30.265625 -12.515625 L 30.265625 0 L 24.640625 0 L 24.640625 -11.0625 C 24.640625 -12.625 24.441406 -13.820312 24.046875 -14.65625 C 23.660156 -15.488281 22.96875 -15.90625 21.96875 -15.90625 C 20.957031 -15.90625 20.203125 -15.441406 19.703125 -14.515625 C 19.203125 -13.585938 18.953125 -12.085938 18.953125 -10.015625 L 18.953125 0 L 13.328125 0 L 13.328125 -11.46875 C 13.328125 -12.945312 13.097656 -14.054688 12.640625 -14.796875 C 12.179688 -15.535156 11.507812 -15.90625 10.625 -15.90625 C 9.738281 -15.90625 9.019531 -15.515625 8.46875 -14.734375 C 7.914062 -13.953125 7.640625 -12.664062 7.640625 -10.875 L 7.640625 0 L 2.015625 0 L 2.015625 -19.765625 L 7.640625 -19.765625 L 7.640625 -17.984375 L 7.734375 -17.984375 C 8.296875 -18.765625 9.007812 -19.363281 9.875 -19.78125 C 10.75 -20.195312 11.644531 -20.40625 12.5625 -20.40625 C 15.082031 -20.40625 16.972656 -19.375 18.234375 -17.3125 Z M 18.234375 -17.3125 "/></g></g></g><g fill="#edf2f4" fill-opacity="1"><g transform="translate(291.237523, 243.012792)"><g><path d="M 7.640625 -34.125 L 7.640625 -17.953125 C 8.335938 -18.734375 9.171875 -19.335938 10.140625 -19.765625 C 11.109375 -20.191406 12.101562 -20.40625 13.125 -20.40625 C 14.78125 -20.40625 16.304688 -19.9375 17.703125 -19 C 19.097656 -18.0625 20.1875 -16.78125 20.96875 -15.15625 C 21.75 -13.53125 22.140625 -11.804688 22.140625 -9.984375 C 22.140625 -8.023438 21.75 -6.21875 20.96875 -4.5625 C 20.1875 -2.914062 19.09375 -1.632812 17.6875 -0.71875 C 16.28125 0.1875 14.71875 0.640625 13 0.640625 C 11.976562 0.640625 10.984375 0.425781 10.015625 0 C 9.054688 -0.425781 8.296875 -1.039062 7.734375 -1.84375 L 7.640625 -1.84375 L 7.640625 0 L 2.015625 0 L 2.015625 -34.125 Z M 11.71875 -15.421875 C 10.457031 -15.421875 9.367188 -14.875 8.453125 -13.78125 C 7.535156 -12.695312 7.078125 -11.40625 7.078125 -9.90625 C 7.078125 -8.375 7.535156 -7.0625 8.453125 -5.96875 C 9.367188 -4.882812 10.46875 -4.34375 11.75 -4.34375 C 13.125 -4.34375 14.242188 -4.90625 15.109375 -6.03125 C 15.984375 -7.164062 16.421875 -8.457031 16.421875 -9.90625 C 16.421875 -11.351562 15.976562 -12.632812 15.09375 -13.75 C 14.207031 -14.863281 13.082031 -15.421875 11.71875 -15.421875 Z M 11.71875 -15.421875 "/></g></g></g><g fill="#edf2f4" fill-opacity="1"><g transform="translate(313.97157, 243.012792)"><g><path d="M 7.53125 -19.765625 L 7.53125 -8.890625 C 7.53125 -5.703125 8.601562 -4.109375 10.75 -4.109375 C 12.894531 -4.109375 13.96875 -5.703125 13.96875 -8.890625 L 13.96875 -19.765625 L 19.609375 -19.765625 L 19.609375 -7.96875 C 19.609375 -5.257812 18.878906 -3.144531 17.421875 -1.625 C 15.972656 -0.113281 13.75 0.640625 10.75 0.640625 C 7.769531 0.640625 5.546875 -0.117188 4.078125 -1.640625 C 2.617188 -3.171875 1.890625 -5.28125 1.890625 -7.96875 L 1.890625 -19.765625 Z M 7.53125 -19.765625 "/></g></g></g><g fill="#edf2f4" fill-opacity="1"><g transform="translate(335.498504, 243.012792)"><g><path d="M 14.28125 -14.6875 C 13.59375 -15.175781 12.816406 -15.421875 11.953125 -15.421875 C 10.503906 -15.421875 9.421875 -14.929688 8.703125 -13.953125 C 7.992188 -12.972656 7.640625 -11.351562 7.640625 -9.09375 L 7.640625 0 L 2.015625 0 L 2.015625 -19.765625 L 7.640625 -19.765625 L 7.640625 -17.703125 L 7.734375 -17.703125 C 8.296875 -18.566406 8.988281 -19.234375 9.8125 -19.703125 C 10.644531 -20.171875 11.585938 -20.40625 12.640625 -20.40625 C 13.421875 -20.375 14.195312 -20.210938 14.96875 -19.921875 Z M 14.28125 -14.6875 "/></g></g></g><g fill="#edf2f4" fill-opacity="1"><g transform="translate(350.265575, 243.012792)"><g><path d="M 14.96875 -17.875 L 14.96875 -19.765625 L 20.609375 -19.765625 L 20.609375 -1 C 20.609375 2.726562 19.816406 5.582031 18.234375 7.5625 C 16.648438 9.550781 14.25 10.546875 11.03125 10.546875 C 8.320312 10.546875 6.019531 9.78125 4.125 8.25 C 2.226562 6.71875 1.203125 4.742188 1.046875 2.328125 L 7 2.328125 C 7.132812 3.378906 7.550781 4.21875 8.25 4.84375 C 8.945312 5.476562 9.832031 5.796875 10.90625 5.796875 C 12.40625 5.796875 13.457031 5.3125 14.0625 4.34375 C 14.664062 3.375 14.96875 1.96875 14.96875 0.125 L 14.96875 -1.96875 L 14.890625 -1.96875 C 14.296875 -1.164062 13.507812 -0.53125 12.53125 -0.0625 C 11.550781 0.40625 10.539062 0.640625 9.5 0.640625 C 6.863281 0.640625 4.722656 -0.34375 3.078125 -2.3125 C 1.429688 -4.28125 0.609375 -6.753906 0.609375 -9.734375 C 0.609375 -11.691406 1.003906 -13.503906 1.796875 -15.171875 C 2.585938 -16.835938 3.6875 -18.125 5.09375 -19.03125 C 6.5 -19.945312 8.0625 -20.40625 9.78125 -20.40625 C 10.71875 -20.40625 11.660156 -20.175781 12.609375 -19.71875 C 13.566406 -19.257812 14.328125 -18.644531 14.890625 -17.875 Z M 10.953125 -15.421875 C 9.660156 -15.421875 8.5625 -14.867188 7.65625 -13.765625 C 6.757812 -12.660156 6.3125 -11.359375 6.3125 -9.859375 C 6.3125 -8.378906 6.757812 -7.085938 7.65625 -5.984375 C 8.5625 -4.890625 9.671875 -4.34375 10.984375 -4.34375 C 12.273438 -4.34375 13.375 -4.882812 14.28125 -5.96875 C 15.195312 -7.0625 15.65625 -8.359375 15.65625 -9.859375 C 15.65625 -11.390625 15.195312 -12.695312 14.28125 -13.78125 C 13.375 -14.875 12.265625 -15.421875 10.953125 -15.421875 Z M 10.953125 -15.421875 "/></g></g></g></svg>